<svg id="Standard_Icons_email" data-name="Standard Icons / email" xmlns="http://www.w3.org/2000/svg" width="48" height="48" viewBox="0 0 48 48">
  <rect id="Icon_Background" data-name="Icon Background" width="48" height="48" rx="4" fill="#1b3b6e"/>
  <g id="email" transform="translate(7 10.901)">
    <path id="Path" d="M15.956,16.052a1.114,1.114,0,0,0,1.5,0l15.774-14.6C33.514.892,33.458,0,32.343,0L1.13.056C.294.056-.375.836.238,1.5Z" transform="translate(0.04 0.111)" fill="#fff"/>
    <path id="Path-2" data-name="Path" d="M33.387.839A.832.832,0,0,0,31.993.226L19.731,11.6a4.455,4.455,0,0,1-6.02,0L1.393.226A.826.826,0,0,0,0,.839V15.331a3.354,3.354,0,0,0,3.344,3.344H30.1a3.354,3.354,0,0,0,3.344-3.344C33.387,15.331,33.387,5.3,33.387.839Z" transform="translate(0.056 6.964)" fill="#fff"/>
  </g>
</svg>
