<svg id="icon" data-name="Layer 1" xmlns="http://www.w3.org/2000/svg" viewBox="0 0 100 100"><defs><style>.cls-1{fill:#fff;}</style></defs><title>zArtboard 2</title><path class="cls-1" d="M80.15,78.06l-9.72-9.72a16.19,16.19,0,1,0-4.09,4.09l9.72,9.72a2.88,2.88,0,0,0,2,.85,2.85,2.85,0,0,0,2-.85,2.89,2.89,0,0,0,0-4.09m-23-7.88a11,11,0,1,1,11-11,11,11,0,0,1-11,11m6.4-12.27A2,2,0,0,1,63,58H55a2,2,0,0,1-2-2V54.14a6.5,6.5,0,0,1,10.55,3.77ZM63,62H55a2,2,0,0,0-2,2v.18A6.5,6.5,0,0,0,63,62Zm2-39V18a2,2,0,0,0-2-2H20a2,2,0,0,0-2,2v5a2,2,0,0,0,2,2H63A2,2,0,0,0,65,23ZM28,36H20a2,2,0,0,1-2-2V31a2,2,0,0,1,2-2h8a2,2,0,0,1,2,2v3A2,2,0,0,1,28,36Zm18,0H37a2,2,0,0,1-2-2V31a2,2,0,0,1,2-2h9a2,2,0,0,1,2,2v3A2,2,0,0,1,46,36Zm17,0H55a2,2,0,0,1-2-2V31a2,2,0,0,1,2-2h8a2,2,0,0,1,2,2v3A2,2,0,0,1,63,36ZM28,47H20a2,2,0,0,1-2-2V42a2,2,0,0,1,2-2h8a2,2,0,0,1,2,2v3A2,2,0,0,1,28,47Zm0,11H20a2,2,0,0,1-2-2V53a2,2,0,0,1,2-2h8a2,2,0,0,1,2,2v3A2,2,0,0,1,28,58Zm0,11H20a2,2,0,0,1-2-2V64a2,2,0,0,1,2-2h8a2,2,0,0,1,2,2v3A2,2,0,0,1,28,69Zm9-22a2,2,0,0,1-2-2V42a2,2,0,0,1,2-2h9a2,2,0,0,1,1.63.85A20.73,20.73,0,0,0,40.5,47Zm-.44,11A2,2,0,0,1,35,56V53a2,2,0,0,1,2-2h1.19A20.67,20.67,0,0,0,36.56,58ZM36.73,62A2,2,0,0,0,35,64v3a2,2,0,0,0,2,2h2A20.26,20.26,0,0,1,36.73,62Z"/></svg>