<svg id="icon" data-name="Layer 1" xmlns="http://www.w3.org/2000/svg" viewBox="0 0 100 100"><defs><style>.cls-1{fill:#fff;}</style></defs><title>zArtboard 1</title><path class="cls-1" d="M77,27H23a2,2,0,0,1-2-2V19a2,2,0,0,1,2-2H77a2,2,0,0,1,2,2v6A2,2,0,0,1,77,27ZM36,38V34a2,2,0,0,0-2-2H23a2,2,0,0,0-2,2v4a2,2,0,0,0,2,2H34A2,2,0,0,0,36,38Zm22,0V34a2,2,0,0,0-2-2H44a2,2,0,0,0-2,2v4a2,2,0,0,0,2,2H56A2,2,0,0,0,58,38Zm21,0V34a2,2,0,0,0-2-2H66a2,2,0,0,0-2,2v4a2,2,0,0,0,2,2H77A2,2,0,0,0,79,38ZM36,51V47a2,2,0,0,0-2-2H23a2,2,0,0,0-2,2v4a2,2,0,0,0,2,2H34A2,2,0,0,0,36,51Zm22,0V47a2,2,0,0,0-2-2H44a2,2,0,0,0-2,2v4a2,2,0,0,0,2,2H56A2,2,0,0,0,58,51Zm21,0V47a2,2,0,0,0-2-2H66a2,2,0,0,0-2,2v4a2,2,0,0,0,2,2H77A2,2,0,0,0,79,51ZM36,64V60a2,2,0,0,0-2-2H23a2,2,0,0,0-2,2v4a2,2,0,0,0,2,2H34A2,2,0,0,0,36,64Zm22,0V60a2,2,0,0,0-2-2H44a2,2,0,0,0-2,2v4a2,2,0,0,0,2,2H56A2,2,0,0,0,58,64Zm21,0V60a2,2,0,0,0-2-2H66a2,2,0,0,0-2,2v4a2,2,0,0,0,2,2H77A2,2,0,0,0,79,64ZM36,77V73a2,2,0,0,0-2-2H23a2,2,0,0,0-2,2v4a2,2,0,0,0,2,2H34A2,2,0,0,0,36,77Zm22,0V73a2,2,0,0,0-2-2H44a2,2,0,0,0-2,2v4a2,2,0,0,0,2,2H56A2,2,0,0,0,58,77Zm21,0V73a2,2,0,0,0-2-2H66a2,2,0,0,0-2,2v4a2,2,0,0,0,2,2H77A2,2,0,0,0,79,77Z"/></svg>