<svg id="report-file" data-name="Layer 1" xmlns="http://www.w3.org/2000/svg" viewBox="0 0 52.5 60"><title>no-eventsArtboard 1</title><path class="cls-1" fill="#45b058" d="M4.78,0A4.81,4.81,0,0,0,0,4.78V55.22A4.81,4.81,0,0,0,4.78,60H47.72a4.81,4.81,0,0,0,4.78-4.78V19L34.78,0Z"/><path class="cls-2" fill="#349c42" d="M52.5,19.13v.93h-12s-6-1.22-5.81-6.37c0,0,.19,5.44,5.62,5.44Z"/><path class="cls-3" fill="#FFF" fill-opacity="0.5" d="M34.69,0V13.69a5.54,5.54,0,0,0,5.81,5.44h12Z"/><path id="Report" class="cls-4" fill="#FFF" d="M21.46,29.81H31a.89.89,0,0,0,.87-.9V27.09a2.67,2.67,0,0,0-2.61-2.71H23.2a2.67,2.67,0,0,0-2.61,2.71v1.82A.89.89,0,0,0,21.46,29.81Zm14.37-3.17H35a.42.42,0,0,0-.44.45v1.82A3.57,3.57,0,0,1,31,32.53H21.46A3.57,3.57,0,0,1,18,28.91V27.09a.42.42,0,0,0-.44-.45h-.87a2.68,2.68,0,0,0-2.61,2.72V48.84a2.68,2.68,0,0,0,2.61,2.72H35.83a2.68,2.68,0,0,0,2.61-2.72V29.36A2.68,2.68,0,0,0,35.83,26.64ZM23.2,45.22a.89.89,0,0,1-.87.91h-.87a.89.89,0,0,1-.87-.91V40.69a.89.89,0,0,1,.87-.91h.87a.89.89,0,0,1,.87.91Zm4.36,0a.9.9,0,0,1-.87.91h-.88a.9.9,0,0,1-.87-.91V36.61a.9.9,0,0,1,.87-.91h.88a.9.9,0,0,1,.87.91Zm4.35,0a.89.89,0,0,1-.87.91h-.87a.89.89,0,0,1-.87-.91v-6.8a.88.88,0,0,1,.87-.9H31a.88.88,0,0,1,.87.9Z"/></svg>
