<svg id="searchRecord" data-name="Layer 1" xmlns="http://www.w3.org/2000/svg" viewBox="0 0 15.23238 16">
	<defs>
		<style>.cls-1{fill:#54698b;}</style>
	</defs>
	<title>icn-search-record</title>
	<path class="cls-1" d="M9.31767,4.89971a5.6722,5.6722,0,0,1,2.0889.45446V2.26995a1.20982,1.20982,0,0,0-1.21722-1.20722H9.78246a.194.194,0,0,0-.21794.19v.8138A1.61148,1.61148,0,0,1,7.95141,3.68411H3.47549A1.62886,1.62886,0,0,1,1.84206,2.0665V1.2527a.17748.17748,0,0,0-.19762-.19H1.23753A1.22738,1.22738,0,0,0,0,2.26995v8.74838a1.25412,1.25412,0,0,0,1.23753,1.23843H4.58312A5.13336,5.13336,0,0,1,4.53391,8.1324a.40051.40051,0,0,1-.21216-.36929V7.35622a.387.387,0,0,1,.37444-.41309h.502a4.43825,4.43825,0,0,1,.7775-.77933H4.69619a.40706.40706,0,0,1-.37444-.43519V5.32172a.40518.40518,0,0,1,.37444-.43318h4.069C8.96023,4.88853,9.31767,4.89971,9.31767,4.89971ZM3.47157,9.79524a.4069.4069,0,0,1-.40691.40691h-.3906a.4069.4069,0,0,1-.40691-.40691v-.3906a.4069.4069,0,0,1,.40691-.40691h.3906a.4069.4069,0,0,1,.40691.40691Zm0-2.0546a.4069.4069,0,0,1-.40691.40691h-.3906a.4069.4069,0,0,1-.40691-.40691V7.35a.4069.4069,0,0,1,.40691-.40691h.3906A.4069.4069,0,0,1,3.47157,7.35Zm0-2.05458a.4069.4069,0,0,1-.40691.40689h-.3906a.4069.4069,0,0,1-.40691-.40689V5.29543a.4069.4069,0,0,1,.40691-.40689h.3906a.4069.4069,0,0,1,.40691.40689Z"/>
	<path class="cls-1" d="M3.47549,2.47969H7.95141A.41508.41508,0,0,0,8.3601,2.0665V1.2527A1.25367,1.25367,0,0,0,7.1376,0H4.2893A1.2712,1.2712,0,0,0,3.04648,1.2527v.8138A.433.433,0,0,0,3.47549,2.47969Z"/>
	<path class="cls-1" d="M15.15846,15.03361l-2.72624-2.7059a3.76836,3.76836,0,1,0-.85449.87484l2.70588,2.7059a.295.295,0,0,0,.42725,0l.42725-.42725A.34118.34118,0,0,0,15.15846,15.03361Zm-5.839-2.33969a2.62451,2.62451,0,1,1,2.62452-2.6245A2.61786,2.61786,0,0,1,9.31942,12.69392Z"/>
</svg>