<svg xmlns="http://www.w3.org/2000/svg" viewBox="0 0 88.91 78.31"><defs><style>.cls-1{fill:#868686;}</style></defs><title>Asset 10</title><g id="Layer_2" data-name="Layer 2"><g id="Layer_1-2" data-name="Layer 1"><path class="cls-1" d="M49.38,32.19v-.08a13,13,0,0,1-6.48-1.77L44,26.59a12.87,12.87,0,0,0,6.26,1.77c2.53,0,4.25-1.26,4.25-3.18s-1.41-2.95-4.36-4.05c-4.23-1.52-6.95-3.44-6.95-7.18,0-3.44,2.41-6.08,6.46-6.79V3.22h3.29V7a12.43,12.43,0,0,1,5.52,1.32L57.37,12a11.82,11.82,0,0,0-5.46-1.36c-2.79,0-3.8,1.43-3.8,2.79,0,1.66,1.43,2.58,4.85,3.94,4.5,1.68,6.48,3.85,6.48,7.42,0,3.4-2.34,6.4-6.77,7.14v.3h4.07A8.93,8.93,0,0,1,63.28,35a19.62,19.62,0,1,0-27.14-2.84Z"/><path class="cls-1" d="M81.59,32.91,66.43,48.06H42.88a.85.85,0,0,1-.85-.85v-.86a.86.86,0,0,1,.85-.86H56.74a4.29,4.29,0,0,0,0-8.58H23a4.27,4.27,0,0,0-3,1.26L1.26,56.83A4.28,4.28,0,0,0,0,59.94c0,.79,0,13.72,0,14.3a4.29,4.29,0,0,0,7.32,2.81l17.4-17.4H65.21a4.25,4.25,0,0,0,3-1.26L87.65,39a4.29,4.29,0,1,0-6.06-6.07Z"/></g></g></svg>