<svg xmlns="http://www.w3.org/2000/svg" viewBox="0 0 68.01 68.01"><defs><style>.cls-1{fill:#3a5a99;}</style></defs><title>Asset 4</title><g id="Layer_2" data-name="Layer 2"><g id="Layer_1-2" data-name="Layer 1"><path class="cls-1" d="M0,34A34,34,0,0,0,34,68H47c11.78,0,21-14.93,21-34S58.79,0,47,0H34A34.05,34.05,0,0,0,0,34ZM33.14,16.1a30.91,30.91,0,0,1,4.51,7.29,19.66,19.66,0,0,0-5.75-3.9C32.27,18.31,32.69,17.18,33.14,16.1Zm1.8,39.46a1.94,1.94,0,0,0,.46-.86,45.42,45.42,0,0,1,2.2-6.91,59.66,59.66,0,0,0-1.16,10.07C35.92,57.14,35.41,56.37,34.94,55.56Zm8.73-14C41.91,41.55,40,38.32,40,34s2-7.56,3.73-7.56c0,0,1.77.2,8.15,5.72a2.42,2.42,0,0,1,0,3.67C45.55,41.28,43.79,41.55,43.67,41.56ZM30.52,42.79c-.19-1.09-.34-2.2-.46-3.33a13.72,13.72,0,0,1,6.26-3.11,2.16,2.16,0,0,0,0,.27A25.31,25.31,0,0,0,30.52,42.79ZM29.79,35c0-.33,0-.66,0-1,0-1,0-2,.08-3a11.3,11.3,0,0,1,6.42,1.06c0,.15,0,.31-.05.47A16.35,16.35,0,0,0,29.79,35ZM32.6,50.56c-.3-.81-.59-1.65-.85-2.52a27.3,27.3,0,0,1,4.69-6.48A42.85,42.85,0,0,0,32.6,50.56ZM30.23,27.19c.18-1.37.41-2.71.69-4A18.57,18.57,0,0,1,37,28.27,15.06,15.06,0,0,0,30.23,27.19Zm4.71-14.73A27.7,27.7,0,0,1,36.58,10h0a44.14,44.14,0,0,1,3,8.86A30.5,30.5,0,0,0,34.94,12.46ZM64.24,34c0,16.66-7.73,30.23-17.23,30.23a11.84,11.84,0,0,1-8.13-3.59,1.89,1.89,0,0,0,1.3-1.76,58.09,58.09,0,0,1,.58-7.14,58.69,58.69,0,0,0,1.07,9.07,1.88,1.88,0,0,0,1.85,1.53,2.46,2.46,0,0,0,.37,0,1.89,1.89,0,0,0,1.48-2.22,56.17,56.17,0,0,1-1-8.06,48.05,48.05,0,0,0,2.8,7.64,1.91,1.91,0,0,0,1.71,1.08,2,2,0,0,0,.81-.18,1.89,1.89,0,0,0,.9-2.52,44.56,44.56,0,0,1-3-8.86,30.65,30.65,0,0,0,4.68,6.39,1.88,1.88,0,0,0,2.67.05,1.9,1.9,0,0,0,0-2.68,29.33,29.33,0,0,1-5.45-8.33,19.13,19.13,0,0,0,7,4.4,1.86,1.86,0,0,0,.61.1,1.89,1.89,0,0,0,.62-3.67A16.17,16.17,0,0,1,51.5,41l.82-.67a15,15,0,0,0,3.75.5,14.54,14.54,0,0,0,3.57-.44,1.89,1.89,0,1,0-.91-3.66,11.35,11.35,0,0,1-3.11.32A6.13,6.13,0,0,0,56.45,34c0-.11,0-.22,0-.33a19.72,19.72,0,0,0,4-2.87A1.89,1.89,0,1,0,57.91,28a16.35,16.35,0,0,1-2.84,2.1,5.87,5.87,0,0,0-.77-.81l-.47-.4A30.92,30.92,0,0,0,59,21.66a1.89,1.89,0,0,0-3.34-1.76,27.15,27.15,0,0,1-4.72,6.56,45.52,45.52,0,0,0,4.72-12.28A1.89,1.89,0,0,0,52,13.31a45.07,45.07,0,0,1-2.21,6.91,59.06,59.06,0,0,0,1.2-11,1.89,1.89,0,0,0-1.86-1.92h0a1.9,1.9,0,0,0-1.89,1.86,56.2,56.2,0,0,1-.58,7.14,60.09,60.09,0,0,0-1.06-9.07,1.89,1.89,0,1,0-3.7.73,56.31,56.31,0,0,1,1,8.07A45.52,45.52,0,0,0,40,8.35a1.88,1.88,0,0,0-1.12-1A11.87,11.87,0,0,1,47,3.78C56.51,3.78,64.24,17.34,64.24,34ZM22.67,34c0-14.69,6-26.95,13.92-29.67C30.22,10.12,26,21.12,26,34s4.22,23.88,10.59,29.66C28.67,61,22.67,48.69,22.67,34ZM3.78,34a30.27,30.27,0,0,1,26-29.93C23.24,9.78,18.89,20.92,18.89,34s4.35,24.22,10.88,29.92A30.26,30.26,0,0,1,3.78,34Z"/></g></g></svg>