<svg xmlns="http://www.w3.org/2000/svg" viewBox="0 0 85.22 73.2"><defs><style>.cls-1{fill:#3a5a99;}</style></defs><title>Asset 2</title><g id="Layer_2" data-name="Layer 2"><g id="Layer_1-2" data-name="Layer 1"><path class="cls-1" d="M20.24,45.47A7.52,7.52,0,1,0,27.73,53,7.52,7.52,0,0,0,20.24,45.47Z"/><path class="cls-1" d="M20.24,32.77A20.22,20.22,0,1,0,40.45,53,20.22,20.22,0,0,0,20.24,32.77Zm0,32.73A12.51,12.51,0,1,1,32.75,53,12.53,12.53,0,0,1,20.24,65.5Z"/><path class="cls-1" d="M65,45.47A7.52,7.52,0,1,0,72.49,53,7.52,7.52,0,0,0,65,45.47Z"/><path class="cls-1" d="M65,32.77A20.22,20.22,0,1,0,85.22,53,20.22,20.22,0,0,0,65,32.77ZM65,65.5A12.51,12.51,0,1,1,77.51,53,12.53,12.53,0,0,1,65,65.5Z"/><path class="cls-1" d="M39,19.91V41.67h7.41V29.37l5,2.44a24.58,24.58,0,0,1,9.39-3.62l-3.71-1.82L46.44,21.12v-.23l2.05-2.05L62.13,5.24,56.88,0,46.44,10.45V0H39V9.42L29.6,0,24.36,5.24,38,18.84Z"/></g></g></svg>