<svg xmlns="http://www.w3.org/2000/svg" viewBox="0 0 90 90"><defs><style>.cls-1{fill:#3a5a99;}</style></defs><title>Asset 1</title><g id="Layer_2" data-name="Layer 2"><g id="Слой_1" data-name="Слой 1"><path class="cls-1" d="M90,7.5A7.5,7.5,0,0,0,77.2,2.19L63.67,15.72,33.14,7.58a2.5,2.5,0,0,0-2.41.65l-5,5a2.51,2.51,0,0,0,.72,4L50.86,28.53l-9,9H37.35v-5a2.5,2.5,0,0,0-2.5-2.5h-9.7a2.5,2.5,0,0,0-2.5,2.5v5.15A22.56,22.56,0,0,0,19.39,39l-3.64-3.64a2.5,2.5,0,0,0-3.53,0L5.36,42.22a2.47,2.47,0,0,0,0,3.53L9,49.39a24.21,24.21,0,0,0-1.35,3.25H2.5A2.5,2.5,0,0,0,0,55.14v9.71a2.5,2.5,0,0,0,2.5,2.5H7.65A23.68,23.68,0,0,0,9,70.6L5.36,74.24a2.49,2.49,0,0,0,0,3.54l6.86,6.86a2.56,2.56,0,0,0,3.53,0L19.39,81a23.8,23.8,0,0,0,3.26,1.35V87.5a2.5,2.5,0,0,0,2.5,2.5h9.7a2.5,2.5,0,0,0,2.5-2.5V82.35A23.8,23.8,0,0,0,40.61,81l3.64,3.64a2.5,2.5,0,0,0,3.53,0l6.86-6.86a2.49,2.49,0,0,0,0-3.54L51,70.6a23.68,23.68,0,0,0,1.35-3.25H57.5a2.5,2.5,0,0,0,2.5-2.5V55.14a2.5,2.5,0,0,0-2.5-2.5h-5V48.1l9-9,11.26,24.4a2.49,2.49,0,0,0,4,.72l5-5a2.5,2.5,0,0,0,.65-2.41L74.28,26.33,87.8,12.8A7.44,7.44,0,0,0,90,7.5ZM84.27,9.26,69.72,23.81a2.5,2.5,0,0,0-.65,2.41l8.14,30.53-1.44,1.44L64.5,33.79a2.49,2.49,0,0,0-1.83-1.42,3.13,3.13,0,0,0-.44,0,2.47,2.47,0,0,0-1.76.74L53,40.55,49.45,37l7.48-7.49a2.48,2.48,0,0,0,.69-2.21,2.51,2.51,0,0,0-1.41-1.83L31.8,14.23l1.45-1.45,30.52,8.14a2.51,2.51,0,0,0,2.42-.64L80.73,5.73a2.55,2.55,0,0,1,3.54,0h0a2.5,2.5,0,0,1,0,3.53ZM55,62.35H50.46A2.49,2.49,0,0,0,48,64.27a18.38,18.38,0,0,1-2.26,5.45,2.5,2.5,0,0,0,.36,3.08L49.34,76,46,79.34l-3.2-3.21a2.51,2.51,0,0,0-3.09-.36A18.15,18.15,0,0,1,34.28,78a2.51,2.51,0,0,0-1.93,2.44V85h-4.7V80.46A2.51,2.51,0,0,0,25.72,78a18.15,18.15,0,0,1-5.44-2.25,2.51,2.51,0,0,0-3.09.36L14,79.34,10.66,76l3.21-3.21a2.5,2.5,0,0,0,.36-3.08A18.38,18.38,0,0,1,12,64.27a2.49,2.49,0,0,0-2.43-1.92H5V57.64H9.54A2.48,2.48,0,0,0,12,55.72a18.49,18.49,0,0,1,2.26-5.45,2.5,2.5,0,0,0-.36-3.08L10.66,44,14,40.66l3.2,3.2a2.51,2.51,0,0,0,3.09.36A18.41,18.41,0,0,1,25.72,42a2.5,2.5,0,0,0,1.93-2.43V35h4.7v4.54A2.5,2.5,0,0,0,34.28,42a18.41,18.41,0,0,1,5.44,2.25,2.51,2.51,0,0,0,3.09-.36l3.2-3.2L49.34,44l-3.21,3.21a2.5,2.5,0,0,0-.36,3.08A18.49,18.49,0,0,1,48,55.72a2.48,2.48,0,0,0,2.43,1.92H55Z"/><path class="cls-1" d="M42.5,60A12.5,12.5,0,1,0,30,72.5,12.51,12.51,0,0,0,42.5,60ZM30,67.5A7.5,7.5,0,1,1,37.5,60,7.51,7.51,0,0,1,30,67.5Z"/></g></g></svg>