<svg xmlns="http://www.w3.org/2000/svg" viewBox="0 0 63.91 90"><defs><style>.cls-1{fill:#fff;stroke:#3a5a99;stroke-miterlimit:10;stroke-width:5px;}</style></defs><title>Asset 2</title><g id="Layer_2" data-name="Layer 2"><g id="Слой_1" data-name="Слой 1"><path class="cls-1" d="M33.87,20c0,9.66-.66,32.5-3.83,32.5,6.2,0-5.73-22.84-5.73-32.5S26.87,2.5,30,2.5,33.87,10.34,33.87,20Z"/><path class="cls-1" d="M30,70c0-9.66.66-32.5,3.83-32.5-6.2,0,5.73,22.84,5.73,32.5S37,87.5,33.87,87.5,30,79.66,30,70Z"/><path class="cls-1" d="M47.55,59.67c-6.4-4.84-21.19-17-19.61-20.59-3.1,7,18,4.93,24.39,9.76S62.64,60.5,61.06,64.08,54,64.5,47.55,59.67Z"/><path class="cls-1" d="M16.35,30.33c6.4,4.84,21.2,17,19.62,20.59,3.09-7-18-4.93-24.4-9.76S1.27,29.5,2.85,25.92,10,25.5,16.35,30.33Z"/><path class="cls-1" d="M14.44,55.33c6.4-4.83,21.85-15.5,23.44-11.91-3.1-7-12.26,17.91-18.66,22.74S6.35,72,4.76,68.42,8,60.17,14.44,55.33Z"/><path class="cls-1" d="M49.47,34.67C43.07,39.5,27.61,50.17,26,46.58c3.1,7,12.26-17.91,18.66-22.74S57.56,18,59.14,21.58,55.87,29.83,49.47,34.67Z"/><path class="cls-1" d="M44.45,45c0,4.14-9.33,7.5-12.5,7.5s-5.73-3.36-5.73-7.5,2.57-7.5,5.73-7.5S44.45,40.86,44.45,45Z"/></g></g></svg>