<svg xmlns="http://www.w3.org/2000/svg" viewBox="0 0 98 126" width="126" height="98">
	<style>
		tspan { white-space:pre }
		.shp0 { fill: #ffffff;stroke: #3a5a99 } 
	</style>
	<g id="Layer">
		<g id="Layer_1-2">
			<path id="Layer" class="shp0" d="M76,65.6l-27,10.7l-16.1,-7.2c-3.1,-1.4 -5.2,3.5 -2.1,4.9l17.1,7.6h0.1c0.2,0.1 0.3,0.1 0.5,0.2h0.1c0.1,0 0.3,0 0.4,0c0.1,0 0.3,0 0.4,0v0c0.2,0 0.3,-0.1 0.5,-0.1v0l28.1,-11.1c3.1,-1.3 1.1,-6.2 -2,-5z" />
			<path id="Layer" class="shp0" d="M22.9,27.6c-1.8,3.6 -3.9,7.2 -5.3,11.1c0,0.2 -0.1,0.3 -0.2,0.3c-0.4,0.1 -0.8,0.2 -1.2,0.4l-6.7,2.4c-0.1,0.1 -0.2,0.1 -0.3,0.2c-0.2,0.8 -0.4,1.6 -0.6,2.5c2.5,-0.2 5.1,-0.3 7.6,-0.5c0,0.6 -0.2,1 -0.2,1.4c-0.1,0.3 0,0.7 0.4,0.9c0.3,0.2 0.7,0.1 1,-0.2l0.9,-0.8c1.2,2.3 2.4,4.5 3.5,6.6c0.6,-0.5 1.2,-1.1 1.7,-1.6c0.2,-0.2 0.2,-0.4 0.2,-0.6c-0.6,-2.5 -1.2,-5.1 -1.8,-7.7c-0.1,-0.2 0,-0.6 0.2,-0.8c0.8,-1.2 1.7,-2.4 2.4,-3.6c1.9,-3.4 3.7,-6.7 5.5,-10.1l0.6,-1.1c4.1,4.5 8,9 12.1,13.5l1.6,-3c0.2,-0.3 0.2,-0.7 0,-1c-2.8,-6.2 -5.6,-12.4 -8.4,-18.6c-0.1,-0.3 -0.1,-0.6 0,-0.8c1.6,-3.2 3.3,-6.3 5.1,-9.5c0.9,-1.7 1.1,-3.7 0.5,-5.3c0,-0.1 0,-0.1 0,-0.1c-0.2,-0.6 -0.8,-0.9 -1.4,-0.7c-1.7,0.4 -3.3,1.6 -4.2,3.2c-0.8,1.2 -1.4,2.4 -2.1,3.6l-3.4,6.2c-0.1,0.1 -0.2,0.3 -0.4,0.3c-0.2,0.1 -0.5,0.1 -0.7,0.1c-2.1,0.3 -4.1,0.5 -6.3,0.8c-2.2,0.3 -4.5,0.6 -6.7,0.9c-2.2,0.3 -4.4,0.6 -6.6,0.9c-0.2,0.1 -0.3,0.2 -0.4,0.3l-1.6,2.8c-0.1,0.1 0,0.2 -0.1,0.3l17.6,3c-0.7,1.5 -1.5,2.9 -2.3,4.3z" />
			<path id="Layer" class="shp0" d="M52.2,28.2l-1.6,-0.1l0.1,1.6c0.1,0.8 0.1,1.7 0.1,2.5v1.2v1.3l1.3,0.1c22.6,1.5 39.7,21.3 38.2,44.3c-1.5,23 -21,40.4 -43.6,38.9c-22.5,-1.5 -39.7,-21.3 -38.2,-44.3c0.4,-7 2.6,-13.7 6.3,-19.6l0.7,-1.5l-1.5,-0.6c-1.1,-0.5 -2.3,-0.9 -3.5,-1.3l-1.1,-0.4l-0.6,1c-13.6,22.7 -6.5,52.4 15.9,66.3c22.4,13.9 51.6,6.7 65.3,-16.1c13.7,-22.8 6.6,-52.5 -15.9,-66.3c-6.6,-4.2 -14.1,-6.6 -21.9,-7z" />
		</g>
	</g>
</svg>