<svg viewBox="0 0 505 319" aria-hidden="true" xmlns="http://www.w3.org/2000/svg">
    <symbol id="going-camping" viewBox="0 0 483 218">
        <g stroke="none" stroke-width="1" fill="none" fill-rule="evenodd">
            <g transform="translate(-64.000000, -98.000000)">
                <g>
                    <rect fill-opacity="0" fill="#D8D8D8" x="0" y="0" width="600" height="400"></rect>
                    <g transform="translate(115.000000, 154.000000)" style="stroke: var(--illustration-stroke-secondary, #cfe9fe);" stroke-linecap="round" stroke-width="3">
                        <path vector-effect="non-scaling-stroke" d="M44,17.5 L63,17.5 C62.2789714,12.0723971 64.081543,7.53186978 68.4077148,3.87841797 C73.3754883,-0.195556641 79.2734375,0.717773438 82.440918,2.12353516 C85.6083984,3.52929687 87.9606934,5.46069336 89.5913086,9.10524041 C90.2822266,10.6397351 90.7517904,11.9379883 91,13"></path>
                        <path vector-effect="non-scaling-stroke" d="M83,20.5 C84.0558268,16.8461914 86.2227376,14.4572754 89.5007324,13.333252 C94.4177246,11.6472168 99.0800781,13.8925781 100.942383,16.1518555 C102.804687,18.4111328 103.39502,20.2260742 103.746582,22.1201172 C103.980957,23.3828125 104.06543,24.8427734 104,26.5 C108.141764,26.3313802 110.918945,27.1647135 112.331543,29 C114.040039,31.1936035 114.215332,33.817627 113.593018,35.75 C112.970703,37.682373 110.894531,40.5 107,40.5 L28,40.5"></path>
                        <path vector-effect="non-scaling-stroke" d="M18,27.5 L83.0004985,27.5"></path>
                        <path vector-effect="non-scaling-stroke" d="M0,27.5 L8,27.5"></path>
                    </g>
                    <g transform="translate(381.000000, 185.000000)" style="stroke: var(--illustration-stroke-secondary, #cfe9fe);" stroke-linecap="round" stroke-width="3">
                        <path vector-effect="non-scaling-stroke" d="M44,17.5 L63,17.5 C62.2789714,12.0723971 64.081543,7.53186978 68.4077148,3.87841797 C73.3754883,-0.195556641 79.2734375,0.717773438 82.440918,2.12353516 C85.6083984,3.52929687 87.9606934,5.46069336 89.5913086,9.10524041 C90.2822266,10.6397351 90.7517904,11.9379883 91,13"></path>
                        <path vector-effect="non-scaling-stroke" d="M83,20.5 C84.0558268,16.8461914 86.2227376,14.4572754 89.5007324,13.333252 C94.4177246,11.6472168 99.0800781,13.8925781 100.942383,16.1518555 C102.804687,18.4111328 103.39502,20.2260742 103.746582,22.1201172 C103.980957,23.3828125 104.06543,24.8427734 104,26.5 C108.141764,26.3313802 110.918945,27.1647135 112.331543,29 C114.040039,31.1936035 114.215332,33.817627 113.593018,35.75 C112.970703,37.682373 110.894531,40.5 107,40.5 L28,40.5"></path>
                        <path vector-effect="non-scaling-stroke" d="M18,27.5 L83.0004985,27.5"></path>
                        <path vector-effect="non-scaling-stroke" d="M0,27.5 L8,27.5"></path>
                    </g>
                    <g transform="translate(245.500000, 236.500000) scale(-1, 1) translate(-245.500000, -236.500000) translate(124.500000, 187.000000)">
                        <polyline vector-effect="non-scaling-stroke" style="stroke: var(--illustration-stroke-secondary, #cfe9fe);" stroke-width="3" stroke-linecap="round" stroke-linejoin="round" points="0.5 97 97 0 168 69"></polyline>
                        <polyline vector-effect="non-scaling-stroke" style="stroke: var(--illustration-stroke-secondary, #cfe9fe);" stroke-width="3" stroke-linecap="round" stroke-linejoin="round" points="145.5 46 168 25 241.5 99"></polyline>
                        <path vector-effect="non-scaling-stroke" d="M149.072948,27.0372884 L155.148556,47 L150.514767,44.0361328 L143.5,38.2738261 L147.165427,27.0187879 C147.336449,26.4936498 147.900798,26.2065817 148.425936,26.3776034 C148.736361,26.4786994 148.977892,26.7249613 149.072948,27.0372884 Z"
                              style="fill: var(--illustration-fill-secondary, #cfe9fe);" transform="translate(149.324278, 36.617027) scale(-1, 1) translate(-149.324278, -36.617027) "></path>
                    </g>
                    <g transform="translate(66.000000, 270.500000)">
                        <g transform="translate(10.339768, 0.275260)"></g>
                        <path vector-effect="non-scaling-stroke" d="M140.962142,26.4644491 C138.225735,20.0143094 131.944776,15.5029106 124.633892,15.5029106 C122.619663,15.5029106 120.683612,15.8453541 118.878328,16.4764392 C115.451481,11.1704266 109.567406,7.66985447 102.883789,7.66985447 C96.4912675,7.66985447 90.8301585,10.8721423 87.3508511,15.7935668 C85.9589956,14.968161 84.3423157,14.4956341 82.6177606,14.4956341 C81.1083143,14.4956341 79.6815102,14.8576334 78.4157672,15.5014039 C74.9975328,6.58722215 66.5098304,0.275259875 56.5804557,0.275259875 C47.4632836,0.275259875 39.5615782,5.59684366 35.6837305,13.3681823 C33.3912034,12.266973 30.8314865,11.6515593 28.1312741,11.6515593 C19.4373504,11.6515593 12.1998844,18.0312998 10.6476214,26.4644491 L140.962142,26.4644491 Z"
                              style="fill: var(--illustration-fill-secondary, #cfe9fe);"></path>
                        <path vector-effect="non-scaling-stroke" d="M0,25 L130,25" style="stroke: var(--illustration-stroke-secondary, #cfe9fe);" stroke-width="3" stroke-linecap="round"></path>
                    </g>
                    <g transform="translate(351.000000, 255.000000)">
                        <g transform="translate(0.293436, 0.054545)">
                            <path vector-effect="non-scaling-stroke" d="M165.428708,41.9454545 L0.0995432562,41.9454545 C0.0336614956,41.2089487 0,40.4630069 0,39.7090909 C0,26.2132599 10.7866531,15.2727273 24.0926641,15.2727273 C27.7492016,15.2727273 31.215485,16.0989227 34.3199502,17.5772977 C39.5712028,7.14424616 50.271428,0 62.6175975,0 C76.0636257,0 87.5573893,8.47383452 92.1862485,20.441159 C93.9002755,19.5768947 95.8324059,19.0909091 97.8764479,19.0909091 C100.211783,19.0909091 102.401037,19.7252784 104.285841,20.8333889 C108.997403,14.2263569 116.663488,9.92727273 125.320028,9.92727273 C138.043441,9.92727273 148.627152,19.2146805 150.834755,31.4671412 C151.487388,31.3631046 152.156394,31.3090909 152.837838,31.3090909 C159.117096,31.3090909 164.340238,35.8953699 165.428708,41.9454545 Z"
                                  style="fill: var(--illustration-fill-secondary, #cfe9fe);"></path>
                            <path vector-effect="non-scaling-stroke" d="M32.7065637,40.4454545 L173.706564,40.4454545" style="stroke: var(--illustration-stroke-secondary, #cfe9fe);" stroke-width="3" stroke-linecap="round"></path>
                            <path vector-effect="non-scaling-stroke" d="M179.706564,40.4454545 L193.706564,40.4454545" style="stroke: var(--illustration-stroke-secondary, #cfe9fe);" stroke-width="3" stroke-linecap="round"></path>
                        </g>
                    </g>
                    <g transform="translate(470.500000, 233.500000)">
                        <g style="fill: var(--illustration-fill-secondary, #cfe9fe);">
                            <path vector-effect="non-scaling-stroke" d="M18.9209988,1.95433401 L33.259296,51.443436 C33.5666778,52.5043744 32.9557995,53.613617 31.8948612,53.9209988 C31.7139843,53.9734036 31.5266126,54 31.3382972,54 L2.6617028,54 C1.5571333,54 0.661702805,53.1045695 0.661702805,52 C0.661702805,51.8116846 0.688299176,51.6243129 0.74070397,51.443436 L15.0790012,1.95433401 C15.386383,0.893395645 16.4956256,0.282517358 17.556564,0.589899164 C18.2152102,0.780726338 18.7301717,1.29568777 18.9209988,1.95433401 Z"></path>
                        </g>
                        <g style="stroke: var(--illustration-stroke-primary, #90d0fe);" stroke-linecap="round" stroke-width="3">
                            <polygon vector-effect="non-scaling-stroke" stroke-linejoin="round" points="17 0.323943662 34 54 -1.81721305e-12 54"></polygon>
                            <path vector-effect="non-scaling-stroke" d="M17,4.6953125 C17,43.0456294 17,62.6471919 17,63.5 C17,62.6471919 17,43.0456294 17,4.6953125 Z"></path>
                            <path vector-effect="non-scaling-stroke" d="M17,29.3239437 C22.3333333,35.7851611 25,39.1184944 25,39.3239437 C25,39.1184944 22.3333333,35.7851611 17,29.3239437 Z" stroke-linejoin="round" transform="translate(21.000000, 34.323944) scale(-1, 1) translate(-21.000000, -34.323944) "></path>
                        </g>
                    </g>
                    <g transform="translate(428.000000, 200.500000)">
                        <g transform="translate(1.000000, 0.000000)" style="fill: var(--illustration-fill-secondary, #cfe9fe);">
                            <path vector-effect="non-scaling-stroke" d="M25.6478873,0 L50.879042,84.4273253 C51.1953215,85.4856452 50.5937789,86.5999782 49.535459,86.9162577 C49.3496374,86.9717906 49.1567264,87 48.9627843,87 L2.33299037,87 C1.22842087,87 0.332990367,86.1045695 0.332990367,85 C0.332990367,84.8060578 0.361199757,84.6131469 0.416732643,84.4273253 L25.6478873,0 Z"></path>
                        </g>
                        <g style="stroke: var(--illustration-stroke-primary, #90d0fe);" stroke-linecap="round" stroke-width="3">
                            <polygon vector-effect="non-scaling-stroke" stroke-linejoin="round" points="26.5 0 52.5 87 0.5 87"></polygon>
                            <path vector-effect="non-scaling-stroke" d="M26.5,3.58642578 C26.5,64.0261034 26.5,94.9972948 26.5,96.5 C26.5,94.9972948 26.5,64.0261034 26.5,3.58642578 Z"></path>
                            <path vector-effect="non-scaling-stroke" d="M15.6478873,42 C22.9812207,49.078692 26.6478873,52.7453587 26.6478873,53 C26.6478873,52.7453587 22.9812207,49.078692 15.6478873,42 Z" stroke-linejoin="round"></path>
                            <path vector-effect="non-scaling-stroke" d="M27.6478873,68 C36.9812207,57.078692 41.6478873,51.7453587 41.6478873,52 C41.6478873,51.7453587 36.9812207,57.078692 27.6478873,68 Z" stroke-linejoin="round"></path>
                        </g>
                    </g>
                    <g transform="translate(123.500000, 234.500000)">
                        <g style="fill: var(--illustration-fill-secondary, #cfe9fe);">
                            <path vector-effect="non-scaling-stroke" d="M18.9209988,1.95433401 L33.259296,51.443436 C33.5666778,52.5043744 32.9557995,53.613617 31.8948612,53.9209988 C31.7139843,53.9734036 31.5266126,54 31.3382972,54 L2.6617028,54 C1.5571333,54 0.661702805,53.1045695 0.661702805,52 C0.661702805,51.8116846 0.688299176,51.6243129 0.74070397,51.443436 L15.0790012,1.95433401 C15.386383,0.893395645 16.4956256,0.282517358 17.556564,0.589899164 C18.2152102,0.780726338 18.7301717,1.29568777 18.9209988,1.95433401 Z"></path>
                        </g>
                        <g style="stroke: var(--illustration-stroke-primary, #90d0fe);" stroke-width="3">
                            <polygon vector-effect="non-scaling-stroke" stroke-linecap="round" stroke-linejoin="round" points="17 0.323943662 34 54 -1.81721305e-12 54"></polygon>
                            <path vector-effect="non-scaling-stroke" d="M17,4.32394366 C17,42.2551731 17,61.6471919 17,62.5 C17,61.6471919 17,42.2551731 17,4.32394366 Z"></path>
                            <path vector-effect="non-scaling-stroke" d="M17,32.3239437 C23.6666667,39.4518278 27,43.1184944 27,43.3239437 C27,43.1184944 23.6666667,39.4518278 17,32.3239437 Z" stroke-linecap="round" stroke-linejoin="round" transform="translate(22.000000, 37.823944) scale(-1, 1) translate(-22.000000, -37.823944) "></path>
                        </g>
                    </g>
                    <g transform="translate(286.000000, 81.000000)">
                        <g>
                            <circle vector-effect="non-scaling-stroke" style="fill: var(--illustration-fill-secondary, #cfe9fe);" cx="64" cy="64" r="23"></circle>
                            <circle vector-effect="non-scaling-stroke" style="stroke: var(--illustration-stroke-secondary, #cfe9fe);" stroke-width="3" stroke-linecap="round" stroke-linejoin="round" stroke-dasharray="135,1,1,18" transform="translate(64.000000, 64.000000) rotate(230.000000) translate(-64.000000, -64.000000) "
                                    cx="64" cy="64" r="45"></circle>
                            <circle vector-effect="non-scaling-stroke" style="stroke: var(--illustration-stroke-secondary, #cfe9fe);" stroke-width="3" stroke-linecap="round" stroke-linejoin="round" stroke-dasharray="107,10" transform="translate(64.000000, 64.000000) rotate(150.000000) translate(-64.000000, -64.000000) "
                                    cx="64" cy="64" r="33"></circle>
                        </g>
                        <g transform="translate(41.000000, 41.000000)" style="stroke: var(--illustration-stroke-primary, #90d0fe);" stroke-width="3">
                            <circle vector-effect="non-scaling-stroke" cx="23" cy="23" r="23"></circle>
                        </g>
                    </g>
                    <g transform="translate(231.000000, 232.500000)">
                        <g transform="translate(0.000000, 11.000000)" fill="#FFFFFF">
                            <circle vector-effect="non-scaling-stroke" cx="12" cy="12" r="12"></circle>
                            <circle vector-effect="non-scaling-stroke" cx="40" cy="12" r="12"></circle>
                        </g>
                        <g transform="translate(1.000000, 0.000000)" style="stroke: var(--illustration-stroke-primary, #90d0fe);" stroke-width="3">
                            <path vector-effect="non-scaling-stroke" d="M43,1 L35,19" stroke-linecap="round" stroke-linejoin="round"></path>
                            <circle vector-effect="non-scaling-stroke" cx="11" cy="23" r="11"></circle>
                            <circle vector-effect="non-scaling-stroke" cx="39" cy="23" r="11"></circle>
                            <polyline vector-effect="non-scaling-stroke" stroke-linecap="round" stroke-linejoin="round" points="11.5823267 0 20 0 11 23"></polyline>
                            <polyline vector-effect="non-scaling-stroke" stroke-linecap="round" stroke-linejoin="round" points="39 6 19 6 39 23"></polyline>
                        </g>
                    </g>
                    <g transform="translate(192.000000, 265.500000)">
                        <g transform="translate(25.000000, 0.000000)" style="fill: var(--illustration-fill-secondary, #cfe9fe);">
                            <path vector-effect="non-scaling-stroke" d="M0.924804688,16.3183594 L12.0722656,1.08691406 L63.9746094,0.530273437 C65.7576937,0.394926274 66.8719516,0.672758305 67.3173828,1.36376953 C67.7628141,2.05478076 68.0753141,4.72698128 68.2548828,9.38037109 L68.2548828,17.0683594 L0.924804688,16.3183594 Z"></path>
                        </g>
                        <g transform="translate(4.000000, 16.000000)" fill="#FFFFFF">
                            <path vector-effect="non-scaling-stroke" d="M5.68920898,0.754150391 C3.81560617,2.20807808 2.60523833,3.3938691 2.05810547,4.31152344 C1.5109726,5.22917777 1.09975841,6.76311332 0.824462891,8.91333008 L1.19946289,19.7626953 C59.9597168,20.4951172 89.3398438,20.6782227 89.3398438,20.3120117 C89.3398438,19.9458008 89.078125,13.3500977 88.5546875,0.524902344 L5.68920898,0.754150391 Z"></path>
                            <circle vector-effect="non-scaling-stroke" cx="73" cy="21.5" r="11"></circle>
                            <circle vector-effect="non-scaling-stroke" cx="19" cy="21.5" r="11"></circle>
                        </g>
                        <g transform="translate(0.000000, 1.000000)" style="stroke: var(--illustration-stroke-primary, #90d0fe);" stroke-linecap="round" stroke-width="3">
                            <path vector-effect="non-scaling-stroke" d="M4.5,35 L4.5,23.5 C4.5,19.9333496 6.65779044,16 13.9491525,16 L25.8813559,16 L33.3504859,4.18951649 C35.000004,1.58123315 37.8709063,5.89597905e-15 40.9570126,5.32907052e-15 L87.5,0 C90.8137085,-6.08718376e-16 93.5,2.6862915 93.5,6 L93.5,35 L87.8985813,35 C87.9654546,35.4904531 88,35.9911923 88,36.5 C88,42.5751322 83.0751322,47.5 77,47.5 C70.9248678,47.5 66,42.5751322 66,36.5 C66,35.9911923 66.0345454,35.4904531 66.1014187,35 L33.8985813,35 C33.9654546,35.4904531 34,35.9911923 34,36.5 C34,42.5751322 29.0751322,47.5 23,47.5 C16.9248678,47.5 12,42.5751322 12,36.5 C12,35.9911923 12.0345454,35.4904531 12.1014187,35 L4.5,35 Z"
                                  stroke-linejoin="round"></path>
                            <circle vector-effect="non-scaling-stroke" stroke-linejoin="round" cx="77" cy="36.5" r="11"></circle>
                            <circle vector-effect="non-scaling-stroke" stroke-linejoin="round" cx="23" cy="36.5" r="11"></circle>
                            <path vector-effect="non-scaling-stroke" d="M0,35 L12,35"></path>
                            <path vector-effect="non-scaling-stroke" d="M99.5,10.5 L99.5,25.5"></path>
                            <path vector-effect="non-scaling-stroke" d="M58.5,1.5 L58.5,14.5"></path>
                            <polyline vector-effect="non-scaling-stroke" points="26 16 34.7470703 16 92.5 16"></polyline>
                        </g>
                    </g>
                    <g transform="translate(282.000000, 234.500000)">
                        <g transform="translate(25.000000, 0.000000)" style="fill: var(--illustration-fill-secondary, #cfe9fe);">
                            <path vector-effect="non-scaling-stroke" d="M2.01464844,13.4511719 L0.18359375,22.2475586 L0.18359375,49.0366211 L65.9321289,49.0366211 L62.9897461,54.4458008 L95.7871094,54.4458008 L95.199707,29.3144531 L89.3999023,17.3056641 L75.6298828,10.543457 C59.2139757,10.1238607 43.9452582,9.9140625 29.8237305,9.9140625 C15.7022027,9.9140625 6.43250868,11.093099 2.01464844,13.4511719 Z"></path>
                            <rect x="27.5" y="0" width="27" height="10" rx="2"></rect>
                        </g>
                        <g transform="translate(24.000000, 9.000000)" fill="#FFFFFF">
                            <polygon vector-effect="non-scaling-stroke" points="0.634277344 40.8232422 67.1601562 40.8232422 64.1865234 45.4521484 96.6953125 46.4760742 93.1474609 54.6992188 84.7587891 57.7099609 11.0742187 58.3500977 0.634277344 57.7099609"></polygon>
                            <circle vector-effect="non-scaling-stroke" cx="66" cy="59.5" r="11"></circle>
                            <path vector-effect="non-scaling-stroke" d="M1.52783203,11.3217773 C4.92236328,6.82128906 8.36539714,4.55810547 11.8569336,4.53222656 C15.3484701,4.50634766 35.8100628,4.50634766 73.241712,4.53222656 C83.0900108,5.16178385 90.4536947,10.2570801 95.3327637,19.8181152 C100.211833,29.3791504 99.1593424,26.0000814 92.175293,9.6809082 C88.4861654,6.10766602 86.5785319,4.27368164 86.4523926,4.17895508 C86.3262533,4.08422852 82.7312012,2.83650716 75.6672363,0.435791016 L58.2929688,0.435791016 L11.5412598,0.435791016 L4.86254883,2.60107422 L1.52783203,6.31982422 L1.52783203,11.3217773 Z"></path>
                        </g>
                        <g style="stroke: var(--illustration-stroke-primary, #90d0fe);" stroke-width="3">
                            <path vector-effect="non-scaling-stroke" d="M108.5,67 C115.127417,67 120.5,61.627417 120.5,55 L120.5,34 C120.5,20.745166 109.754834,10 96.5,10 L36.5,10 C29.872583,10 24.5,15.372583 24.5,22 L24.5,67 L79.1014187,67 C79.0345454,67.4904531 79,67.9911923 79,68.5 C79,74.5751322 83.9248678,79.5 90,79.5 C96.0751322,79.5 101,74.5751322 101,68.5 C101,67.9911923 100.965455,67.4904531 100.898581,67 L108.5,67 Z"
                                  stroke-linecap="round" stroke-linejoin="round"></path>
                            <path vector-effect="non-scaling-stroke" d="M54.5,0 L77.5,0 C78.6045695,-2.02906125e-16 79.5,0.8954305 79.5,2 L79.5,10 L52.5,10 L52.5,2 C52.5,0.8954305 53.3954305,2.02906125e-16 54.5,0 Z"></path>
                            <rect x="38.5" y="24" width="24" height="43" rx="1"></rect>
                            <rect x="75.5" y="24" width="30" height="15" rx="1"></rect>
                            <polyline vector-effect="non-scaling-stroke" points="25 49 91.5 49 86.9943799 55 120.5 55"></polyline>
                            <path vector-effect="non-scaling-stroke" d="M105.004883,67 L0,67"></path>
                        </g>
                    </g>
                </g>
            </g>
        </g>
    </symbol>

    <symbol id="setup-compass" viewBox="0 0 396 245">
        <g stroke="none" stroke-width="1" fill="none" fill-rule="evenodd">
            <g transform="translate(-114.000000, -78.000000)">
                <g>
                    <g transform="translate(124.000000, 154.000000)" style="stroke: var(--illustration-stroke-secondary, #cfe9fe);" stroke-linecap="round" stroke-width="3">
                        <path vector-effect="non-scaling-stroke" d="M44,17.5 L63,17.5 C62.2789714,12.0723971 64.081543,7.53186978 68.4077148,3.87841797 C73.3754883,-0.195556641 79.2734375,0.717773438 82.440918,2.12353516 C85.6083984,3.52929687 87.9606934,5.46069336 89.5913086,9.10524041 C90.2822266,10.6397351 90.7517904,11.9379883 91,13"></path>
                        <path vector-effect="non-scaling-stroke" d="M83,20.5 C84.0558268,16.8461914 86.2227376,14.4572754 89.5007324,13.333252 C94.4177246,11.6472168 99.0800781,13.8925781 100.942383,16.1518555 C102.804687,18.4111328 103.39502,20.2260742 103.746582,22.1201172 C103.980957,23.3828125 104.06543,24.8427734 104,26.5 C108.141764,26.3313802 110.918945,27.1647135 112.331543,29 C114.040039,31.1936035 114.215332,33.817627 113.593018,35.75 C112.970703,37.682373 110.894531,40.5 107,40.5 L28,40.5"></path>
                        <path vector-effect="non-scaling-stroke" d="M18,27.5 L83.0004985,27.5"></path>
                        <path vector-effect="non-scaling-stroke" d="M0,27.5 L8,27.5"></path>
                    </g>
                    <g transform="translate(339.000000, 107.000000)" style="stroke: var(--illustration-stroke-secondary, #cfe9fe);" stroke-linecap="round" stroke-width="3">
                        <path vector-effect="non-scaling-stroke" d="M44,17.5 L63,17.5 C62.2789714,12.0723971 64.081543,7.53186978 68.4077148,3.87841797 C73.3754883,-0.195556641 79.2734375,0.717773438 82.440918,2.12353516 C85.6083984,3.52929687 87.9606934,5.46069336 89.5913086,9.10524041 C90.2822266,10.6397351 90.7517904,11.9379883 91,13"></path>
                        <path vector-effect="non-scaling-stroke" d="M83,20.5 C84.0558268,16.8461914 86.2227376,14.4572754 89.5007324,13.333252 C94.4177246,11.6472168 99.0800781,13.8925781 100.942383,16.1518555 C102.804687,18.4111328 103.39502,20.2260742 103.746582,22.1201172 C103.980957,23.3828125 104.06543,24.8427734 104,26.5 C108.141764,26.3313802 110.918945,27.1647135 112.331543,29 C114.040039,31.1936035 114.215332,33.817627 113.593018,35.75 C112.970703,37.682373 110.894531,40.5 107,40.5 L28,40.5"></path>
                        <path vector-effect="non-scaling-stroke" d="M18,27.5 L83.0004985,27.5"></path>
                        <path vector-effect="non-scaling-stroke" d="M0,27.5 L8,27.5"></path>
                    </g>
                    <g transform="translate(151.000000, 296.500000)">
                        <g transform="translate(10.339768, 0.275260)"></g>
                        <path vector-effect="non-scaling-stroke" d="M140.962142,26.4644491 C138.225735,20.0143094 131.944776,15.5029106 124.633892,15.5029106 C122.619663,15.5029106 120.683612,15.8453541 118.878328,16.4764392 C115.451481,11.1704266 109.567406,7.66985447 102.883789,7.66985447 C96.4912675,7.66985447 90.8301585,10.8721423 87.3508511,15.7935668 C85.9589956,14.968161 84.3423157,14.4956341 82.6177606,14.4956341 C81.1083143,14.4956341 79.6815102,14.8576334 78.4157672,15.5014039 C74.9975328,6.58722215 66.5098304,0.275259875 56.5804557,0.275259875 C47.4632836,0.275259875 39.5615782,5.59684366 35.6837305,13.3681823 C33.3912034,12.266973 30.8314865,11.6515593 28.1312741,11.6515593 C19.4373504,11.6515593 12.1998844,18.0312998 10.6476214,26.4644491 L140.962142,26.4644491 Z"
                        style="fill: var(--illustration-fill-secondary, #cfe9fe);"></path>
                        <path vector-effect="non-scaling-stroke" d="M0,25 L130,25" style="stroke: var(--illustration-stroke-secondary, #cfe9fe);" stroke-width="3" stroke-linecap="round"></path>
                    </g>
                    <g transform="translate(320.000000, 281.000000)">
                        <g transform="translate(0.293436, 0.054545)">
                        <path vector-effect="non-scaling-stroke" d="M165.428708,41.9454545 L0.0995432562,41.9454545 C0.0336614956,41.2089487 0,40.4630069 0,39.7090909 C0,26.2132599 10.7866531,15.2727273 24.0926641,15.2727273 C27.7492016,15.2727273 31.215485,16.0989227 34.3199502,17.5772977 C39.5712028,7.14424616 50.271428,0 62.6175975,0 C76.0636257,0 87.5573893,8.47383452 92.1862485,20.441159 C93.9002755,19.5768947 95.8324059,19.0909091 97.8764479,19.0909091 C100.211783,19.0909091 102.401037,19.7252784 104.285841,20.8333889 C108.997403,14.2263569 116.663488,9.92727273 125.320028,9.92727273 C138.043441,9.92727273 148.627152,19.2146805 150.834755,31.4671412 C151.487388,31.3631046 152.156394,31.3090909 152.837838,31.3090909 C159.117096,31.3090909 164.340238,35.8953699 165.428708,41.9454545 Z"
                        style="fill: var(--illustration-fill-secondary, #cfe9fe);"></path>
                        <path vector-effect="non-scaling-stroke" d="M32.7065637,40.4454545 L173.706564,40.4454545" style="stroke: var(--illustration-stroke-secondary, #cfe9fe);" stroke-width="3" stroke-linecap="round"></path>
                        </g>
                    </g>
                    <g transform="translate(116.000000, 80.000000)">
                        <g transform="translate(106.000000, 4.000000)">
                            <g>
                                <use style="fill: var(--illustration-fill-secondary, #cfe9fe);" fill-rule="evenodd" xlink:href="#path-1"></use>
                                <rect style="stroke: var(--illustration-stroke-primary, #90d0fe);" stroke-width="3" x="78.5" y="48.5" width="17" height="25"></rect>
                            </g>
                            <rect style="fill: var(--illustration-fill-secondary, #cfe9fe);" x="72" y="30" width="30" height="22" rx="2"></rect>
                            <circle vector-effect="non-scaling-stroke" style="fill: var(--illustration-fill-secondary, #cfe9fe);" cx="87" cy="150" r="87"></circle>
                            <circle vector-effect="non-scaling-stroke" style="stroke: var(--illustration-stroke-secondary, #cfe9fe);" stroke-width="6" stroke-linecap="round" stroke-linejoin="round" cx="87.5" cy="23.5" r="23.5"></circle>
                        </g>
                        <g transform="translate(112.000000, 35.000000)" fill="#FFFFFF">
                            <circle vector-effect="non-scaling-stroke" cx="81" cy="119" r="73"></circle>
                            <rect x="67" y="0" width="28" height="4"></rect>
                            <path vector-effect="non-scaling-stroke" d="M0.180175781,90.2270508 C0.778808594,89.5117187 11.3666992,64.2470703 30.4042969,52.2089844 C49.4418945,40.1708984 64.3725586,35.2084961 85.1640625,36.3398437 C105.955566,37.4711914 122.305176,44.8969727 133.487793,53.7832031 C144.67041,62.6694336 156.910645,77.7836914 163.28125,93.7817383 C167.52832,104.447103 164.678548,96.9777018 154.731934,71.3735352 L134.561523,50.390625 L106.423828,35.831543 L83.5615234,32.3847656 L61.4130859,34.121582 L40.7431641,41.5869141 L21.2519531,54.597168 L6.90820313,73.0634766 C2.02376302,84.9827474 -0.21891276,90.7039388 0.180175781,90.2270508 Z"></path>
                        </g>
                        <g style="stroke: var(--illustration-stroke-primary, #90d0fe);" stroke-width="3">
                            <path vector-effect="non-scaling-stroke" d="M178.5,49.7801039 C170.984351,44.9862617 166,36.5752096 166,27 C166,12.0883118 178.088312,0 193,0 C207.911688,0 220,12.0883118 220,27 C220,36.5752096 215.015649,44.9862617 207.5,49.7801039 L207.5,55.5 C207.5,56.0522847 207.052285,56.5 206.5,56.5 L179.5,56.5 C178.947715,56.5 178.5,56.0522847 178.5,55.5 L178.5,49.7801039 Z"></path>
                            <path vector-effect="non-scaling-stroke" d="M178.5,40.7750367 C175.091592,37.1883928 173,32.3384551 173,27 C173,15.954305 181.954305,7 193,7 C204.045695,7 213,15.954305 213,27 C213,32.3384551 210.908408,37.1883928 207.5,40.7750367 L207.5,35.5 C207.5,34.9477153 207.052285,34.5 206.5,34.5 L179.5,34.5 C178.947715,34.5 178.5,34.9477153 178.5,35.5 L178.5,40.7750367 Z"></path>
                            <path vector-effect="non-scaling-stroke" d="M179.5,34.5 L206.5,34.5 C207.052285,34.5 207.5,34.9477153 207.5,35.5 L207.5,55.5 C207.5,56.0522847 207.052285,56.5 206.5,56.5 L179.5,56.5 C178.947715,56.5 178.5,56.0522847 178.5,55.5 L178.5,35.5 C178.5,34.9477153 178.947715,34.5 179.5,34.5 Z"
                            stroke-linecap="round" stroke-linejoin="round"></path>
                            <path vector-effect="non-scaling-stroke" d="M184.5,56.5 L184.5,67.356737 C187.353249,67.1189178 190.206393,67 193.059326,67 C195.900065,67 198.713659,67.1179036 201.5,67.3537468 L201.5,56.5 L184.5,56.5 Z"></path>
                            <path vector-effect="non-scaling-stroke" d="M27,241.5 L392,241.5" stroke-linecap="round"></path>
                            <path vector-effect="non-scaling-stroke" d="M0,241.5 L20,241.5" stroke-linecap="round"></path>
                            <circle vector-effect="non-scaling-stroke" cx="193" cy="154" r="87"></circle>
                            <circle vector-effect="non-scaling-stroke" cx="193" cy="154" r="73"></circle>
                        </g>
                    </g>
                    <g transform="translate(252.000000, 178.000000)">
                        <g transform="translate(2.000000, 1.000000)">
                            <circle vector-effect="non-scaling-stroke" style="stroke: var(--illustration-stroke-secondary, #cfe9fe);" stroke-width="6" cx="55" cy="55" r="41"></circle>
                            <polygon vector-effect="non-scaling-stroke" style="fill: var(--illustration-fill-secondary, #cfe9fe);" points="55 0 62 16 48 16"></polygon>
                            <polygon vector-effect="non-scaling-stroke" style="fill: var(--illustration-fill-secondary, #cfe9fe);" transform="translate(55.000000, 102.000000) scale(1, -1) translate(-55.000000, -102.000000) " points="55 94 62 110 48 110"></polygon>
                            <polygon vector-effect="non-scaling-stroke" style="fill: var(--illustration-fill-secondary, #cfe9fe);" transform="translate(102.000000, 55.000000) scale(1, -1) rotate(90.000000) translate(-102.000000, -55.000000) " points="102 47 109 63 95 63"></polygon>
                            <polygon vector-effect="non-scaling-stroke" style="fill: var(--illustration-fill-secondary, #cfe9fe);" transform="translate(8.000000, 55.000000) scale(-1, -1) rotate(90.000000) translate(-8.000000, -55.000000) " points="8 47 15 63 1 63"></polygon>
                            <polygon vector-effect="non-scaling-stroke" style="fill: var(--illustration-fill-secondary, #cfe9fe);" transform="translate(78.371087, 79.079086) scale(1, -1) rotate(45.000000) translate(-78.371087, -79.079086) " points="78.3710872 47.4827561 96.4223693 110.675417 60.3198052 110.675417"></polygon>
                        </g>
                        <g style="fill: var(--illustration-fill-primary, #90d0fe);">
                            <polygon vector-effect="non-scaling-stroke" transform="translate(35.687128, 35.395128) scale(-1, 1) rotate(45.000000) translate(-35.687128, -35.395128) " points="35.6871284 3.79879726 53.7384105 66.9914578 17.6358464 66.9914578"></polygon>
                            <ellipse cx="58" cy="58.0018766" rx="9" ry="9.00187656"></ellipse>
                        </g>
                        <g transform="translate(49.000000, 49.000000)" stroke="#FFFFFF" stroke-width="3">
                            <ellipse cx="9" cy="9.00187656" rx="9" ry="9.00187656"></ellipse>
                        </g>
                    </g>
                    <g transform="translate(436.500000, 259.500000)">
                        <g style="fill: var(--illustration-fill-secondary, #cfe9fe);">
                          <path vector-effect="non-scaling-stroke" d="M18.9209988,1.95433401 L33.259296,51.443436 C33.5666778,52.5043744 32.9557995,53.613617 31.8948612,53.9209988 C31.7139843,53.9734036 31.5266126,54 31.3382972,54 L2.6617028,54 C1.5571333,54 0.661702805,53.1045695 0.661702805,52 C0.661702805,51.8116846 0.688299176,51.6243129 0.74070397,51.443436 L15.0790012,1.95433401 C15.386383,0.893395645 16.4956256,0.282517358 17.556564,0.589899164 C18.2152102,0.780726338 18.7301717,1.29568777 18.9209988,1.95433401 Z"></path>
                        </g>
                        <g style="stroke: var(--illustration-stroke-primary, #90d0fe);" stroke-linecap="round" stroke-width="3">
                            <polygon vector-effect="non-scaling-stroke" stroke-linejoin="round" points="17 0.323943662 34 54 -1.81721305e-12 54"></polygon>
                            <path vector-effect="non-scaling-stroke" d="M17,4.6953125 C17,43.0456294 17,62.6471919 17,63.5 C17,62.6471919 17,43.0456294 17,4.6953125 Z"></path>
                            <path vector-effect="non-scaling-stroke" d="M17,29.3239437 C22.3333333,35.7851611 25,39.1184944 25,39.3239437 C25,39.1184944 22.3333333,35.7851611 17,29.3239437 Z" stroke-linejoin="round" transform="translate(21.000000, 34.323944) scale(-1, 1) translate(-21.000000, -34.323944) "></path>
                        </g>
                    </g>
                    <g transform="translate(393.000000, 226.500000)">
                        <g transform="translate(1.000000, 0.000000)" style="fill: var(--illustration-fill-secondary, #cfe9fe);">
                            <path vector-effect="non-scaling-stroke" d="M25.6478873,0 L50.879042,84.4273253 C51.1953215,85.4856452 50.5937789,86.5999782 49.535459,86.9162577 C49.3496374,86.9717906 49.1567264,87 48.9627843,87 L2.33299037,87 C1.22842087,87 0.332990367,86.1045695 0.332990367,85 C0.332990367,84.8060578 0.361199757,84.6131469 0.416732643,84.4273253 L25.6478873,0 Z"></path>
                        </g>
                        <g style="stroke: var(--illustration-stroke-primary, #90d0fe);" stroke-linecap="round" stroke-width="3">
                            <polygon vector-effect="non-scaling-stroke" stroke-linejoin="round" points="26.5 0 52.5 87 0.5 87"></polygon>
                            <path vector-effect="non-scaling-stroke" d="M26.5,3.58642578 C26.5,64.0261034 26.5,94.9972948 26.5,96.5 C26.5,94.9972948 26.5,64.0261034 26.5,3.58642578 Z"></path>
                            <path vector-effect="non-scaling-stroke" d="M15.6478873,42 C22.9812207,49.078692 26.6478873,52.7453587 26.6478873,53 C26.6478873,52.7453587 22.9812207,49.078692 15.6478873,42 Z" stroke-linejoin="round"></path>
                            <path vector-effect="non-scaling-stroke" d="M27.6478873,68 C36.9812207,57.078692 41.6478873,51.7453587 41.6478873,52 C41.6478873,51.7453587 36.9812207,57.078692 27.6478873,68 Z" stroke-linejoin="round"></path>
                        </g>
                    </g>
                    <g transform="translate(182.500000, 259.500000)">
                        <g style="fill: var(--illustration-fill-secondary, #cfe9fe);">
                            <path vector-effect="non-scaling-stroke" d="M18.9209988,1.95433401 L33.259296,51.443436 C33.5666778,52.5043744 32.9557995,53.613617 31.8948612,53.9209988 C31.7139843,53.9734036 31.5266126,54 31.3382972,54 L2.6617028,54 C1.5571333,54 0.661702805,53.1045695 0.661702805,52 C0.661702805,51.8116846 0.688299176,51.6243129 0.74070397,51.443436 L15.0790012,1.95433401 C15.386383,0.893395645 16.4956256,0.282517358 17.556564,0.589899164 C18.2152102,0.780726338 18.7301717,1.29568777 18.9209988,1.95433401 Z"></path>
                        </g>
                        <g style="stroke: var(--illustration-stroke-primary, #90d0fe);" stroke-width="3">
                            <polygon vector-effect="non-scaling-stroke" stroke-linecap="round" stroke-linejoin="round" points="17 0.323943662 34 54 -1.81721305e-12 54"></polygon>
                            <path vector-effect="non-scaling-stroke" d="M17,4.32394366 C17,42.2551731 17,61.6471919 17,62.5 C17,61.6471919 17,42.2551731 17,4.32394366 Z"></path>
                            <path vector-effect="non-scaling-stroke" d="M17,32.3239437 C23.6666667,39.4518278 27,43.1184944 27,43.3239437 C27,43.1184944 23.6666667,39.4518278 17,32.3239437 Z" stroke-linecap="round" stroke-linejoin="round" transform="translate(22.000000, 37.823944) scale(-1, 1) translate(-22.000000, -37.823944) "></path>
                        </g>
                    </g>
                    <g transform="translate(129.000000, 209.000000)" style="stroke: var(--illustration-stroke-secondary, #cfe9fe);" stroke-linecap="round" stroke-width="3">
                        <g transform="translate(27.848898, 30.021465) rotate(-15.000000) translate(-27.848898, -30.021465) translate(5.848898, 5.021465)">
                            <path vector-effect="non-scaling-stroke" d="M1.73977935,3.49433365 C1.73977935,3.49433365 11.283937,0.730940796 13.3525511,10.749914" transform="translate(7.546165, 6.947488) rotate(41.000000) translate(-7.546165, -6.947488) "></path>
                            <path vector-effect="non-scaling-stroke" d="M11.1319089,10.2387854 C11.1319089,10.2387854 20.6760665,7.47539254 22.7446806,17.4943658" transform="translate(16.938295, 13.691939) scale(-1, 1) rotate(-41.000000) translate(-16.938295, -13.691939) "></path>
                            <path vector-effect="non-scaling-stroke" d="M19.7302848,42.5865514 C19.7302848,42.5865514 29.2744424,39.8231586 31.3430565,49.8421318"></path>
                            <path vector-effect="non-scaling-stroke" d="M31.7302848,42.5865514 C31.7302848,42.5865514 41.2744424,39.8231586 43.3430565,49.8421318" transform="translate(37.536671, 46.039705) scale(-1, 1) translate(-37.536671, -46.039705) "></path>
                        </g>
                    </g>
                </g>
            </g>
        </g>
    </symbol>

    <symbol id="no-content" viewBox="0 0 454 213">
        <g stroke="none" stroke-width="1" fill="none" fill-rule="evenodd">
          <g transform="translate(-70.000000, -94.000000)">
            <g>
              <g transform="translate(124.500000, 222.000000)">
                <g fill="#FFFFFF">
                  <path vector-effect="non-scaling-stroke" d="M18.9209988,1.95433401 L33.259296,51.443436 C33.5666778,52.5043744 32.9557995,53.613617 31.8948612,53.9209988 C31.7139843,53.9734036 31.5266126,54 31.3382972,54 L2.6617028,54 C1.5571333,54 0.661702805,53.1045695 0.661702805,52 C0.661702805,51.8116846 0.688299176,51.6243129 0.74070397,51.443436 L15.0790012,1.95433401 C15.386383,0.893395645 16.4956256,0.282517358 17.556564,0.589899164 C18.2152102,0.780726338 18.7301717,1.29568777 18.9209988,1.95433401 Z"></path>
                </g>
                <g style="stroke: var(--illustration-stroke-secondary, #cfe9fe);" stroke-linecap="round" stroke-width="3">
                  <polygon vector-effect="non-scaling-stroke" stroke-linejoin="round" points="17 0.323943662 34 54 -1.81721305e-12 54"></polygon>
                  <path vector-effect="non-scaling-stroke" d="M17,4.6953125 C17,43.0456294 17,62.6471919 17,63.5 C17,62.6471919 17,43.0456294 17,4.6953125 Z"></path>
                  <path vector-effect="non-scaling-stroke" d="M17,29.3239437 C22.3333333,35.7851611 25,39.1184944 25,39.3239437 C25,39.1184944 22.3333333,35.7851611 17,29.3239437 Z" stroke-linejoin="round" transform="translate(21.000000, 34.323944) scale(-1, 1) translate(-21.000000, -34.323944) "></path>
                </g>
              </g>
              <g transform="translate(145.000000, 194.000000)">
                <g transform="translate(1.000000, 0.000000)" fill="#FFFFFF">
                  <path vector-effect="non-scaling-stroke" d="M25.6478873,0 L50.879042,84.4273253 C51.1953215,85.4856452 50.5937789,86.5999782 49.535459,86.9162577 C49.3496374,86.9717906 49.1567264,87 48.9627843,87 L2.33299037,87 C1.22842087,87 0.332990367,86.1045695 0.332990367,85 C0.332990367,84.8060578 0.361199757,84.6131469 0.416732643,84.4273253 L25.6478873,0 Z"></path>
                </g>
                <g style="stroke: var(--illustration-stroke-secondary, #cfe9fe);" stroke-linecap="round" stroke-width="3">
                  <polygon vector-effect="non-scaling-stroke" stroke-linejoin="round" points="26.5 0 52.5 87 0.5 87"></polygon>
                  <path vector-effect="non-scaling-stroke" d="M26.5,2.58642578 C26.5,61.0261034 26.5,90.9972948 26.5,92.5 C26.5,90.9972948 26.5,61.0261034 26.5,2.58642578 Z"></path>
                  <path vector-effect="non-scaling-stroke" d="M15.6478873,42 C22.314554,49.078692 25.6478873,52.7453587 25.6478873,53 C25.6478873,52.7453587 22.314554,49.078692 15.6478873,42 Z" stroke-linejoin="round"></path>
                  <path vector-effect="non-scaling-stroke" d="M27.6478873,68 C36.9812207,57.078692 41.6478873,51.7453587 41.6478873,52 C41.6478873,51.7453587 36.9812207,57.078692 27.6478873,68 Z" stroke-linejoin="round"></path>
                </g>
              </g>
              <g transform="translate(404.500000, 245.000000) scale(-1, 1) translate(-404.500000, -245.000000) translate(348.000000, 226.000000)" style="stroke: var(--illustration-stroke-secondary, #cfe9fe);" stroke-linecap="round" stroke-linejoin="round" stroke-width="3">
                <polyline vector-effect="non-scaling-stroke" points="0 38 47.5 0 80.5 26"></polyline>
                <polyline vector-effect="non-scaling-stroke" points="71 17 80.5 9 113 36"></polyline>
              </g>
              <g transform="translate(72.000000, 262.500000)">
                <path vector-effect="non-scaling-stroke" d="M153.962142,26.4644491 C151.225735,20.0143094 144.944776,15.5029106 137.633892,15.5029106 C135.619663,15.5029106 133.683612,15.8453541 131.878328,16.4764392 C128.451481,11.1704266 122.567406,7.66985447 115.883789,7.66985447 C109.491267,7.66985447 103.830159,10.8721423 100.350851,15.7935668 C98.9589956,14.968161 97.3423157,14.4956341 95.6177606,14.4956341 C94.1083143,14.4956341 92.6815102,14.8576334 91.4157672,15.5014039 C87.9975328,6.58722215 79.5098304,0.275259875 69.5804557,0.275259875 C60.4632836,0.275259875 52.5615782,5.59684366 48.6837305,13.3681823 C46.3912034,12.266973 43.8314865,11.6515593 41.1312741,11.6515593 C32.4373504,11.6515593 25.1998844,18.0312998 23.6476214,26.4644491 L153.962142,26.4644491 Z"
                  style="fill: var(--illustration-fill-secondary, #cfe9fe);"></path>
                <path vector-effect="non-scaling-stroke" d="M13,25 L143,25" style="stroke: var(--illustration-stroke-secondary, #cfe9fe);" stroke-width="3" stroke-linecap="round"></path>
                <path vector-effect="non-scaling-stroke" d="M0,25 L450,25" style="stroke: var(--illustration-stroke-secondary, #cfe9fe);" stroke-width="3" stroke-linecap="round"></path>
              </g>
              <g transform="translate(344.000000, 247.000000)">
                <g transform="translate(0.293436, 0.054545)">
                  <path vector-effect="non-scaling-stroke" d="M165.428708,41.9454545 L0.0995432562,41.9454545 C0.0336614956,41.2089487 0,40.4630069 0,39.7090909 C0,26.2132599 10.7866531,15.2727273 24.0926641,15.2727273 C27.7492016,15.2727273 31.215485,16.0989227 34.3199502,17.5772977 C39.5712028,7.14424616 50.271428,0 62.6175975,0 C76.0636257,0 87.5573893,8.47383452 92.1862485,20.441159 C93.9002755,19.5768947 95.8324059,19.0909091 97.8764479,19.0909091 C100.211783,19.0909091 102.401037,19.7252784 104.285841,20.8333889 C108.997403,14.2263569 116.663488,9.92727273 125.320028,9.92727273 C138.043441,9.92727273 148.627152,19.2146805 150.834755,31.4671412 C151.487388,31.3631046 152.156394,31.3090909 152.837838,31.3090909 C159.117096,31.3090909 164.340238,35.8953699 165.428708,41.9454545 Z"
                    style="fill: var(--illustration-fill-secondary, #cfe9fe);"></path>
                  <path vector-effect="non-scaling-stroke" d="M32.7065637,40.4454545 L173.706564,40.4454545" style="stroke: var(--illustration-stroke-secondary, #cfe9fe);" stroke-width="3" stroke-linecap="round"></path>
                </g>
              </g>
              <g transform="translate(105.000000, 189.000000)">
                <g transform="translate(106.000000, 48.000000)" fill="#FFFFFF">
                  <polygon vector-effect="non-scaling-stroke" points="121.5 14.5 158.5 14.5 158.5 0.5 47.5 0.5 47.5 14.5 93.5 14.5 93.5 35.5 121.5 35.5 121.5 14.5"></polygon>
                  <rect x="0" y="0" width="48" height="14"></rect>
                </g>
                <g transform="translate(106.000000, 62.000000)" style="fill: var(--illustration-fill-secondary, #cfe9fe);">
                  <polygon vector-effect="non-scaling-stroke" points="93.3109375 0.456640625 93.3109375 21.6722656 120.925 21.6722656 121.823047 1.13242188 158.5 0.456640625 158.5 54.5 48.5 54.5 48.5 0.693359375"></polygon>
                  <rect x="0.5" y="0.5" width="48" height="54"></rect>
                </g>
                <g>
                  <rect style="stroke: var(--illustration-stroke-primary, #90d0fe);" stroke-width="3" stroke-linecap="round" stroke-linejoin="round" x="154.5" y="48.5" width="110" height="68"></rect>
                  <polygon vector-effect="non-scaling-stroke" style="stroke: var(--illustration-stroke-primary, #90d0fe);" stroke-width="3" stroke-linecap="round" stroke-linejoin="round" points="264.5 62.5 264.5 48.5 154.5 48.5 154.5 62.5 199.5 62.5 199.5 83.5 227.5 83.5 227.5 62.5"></polygon>
                  <path vector-effect="non-scaling-stroke" d="M96.5,7.5 L96.5,7.5 C109.754834,7.5 120.5,18.245166 120.5,31.5 L120.5,41.5 L72.5,41.5 L72.5,31.5 C72.5,18.245166 83.245166,7.5 96.5,7.5 Z" style="fill: var(--illustration-fill-secondary, #cfe9fe);" transform="translate(96.500000, 24.500000) scale(-1, 1) rotate(90.000000) translate(-96.500000, -24.500000) "></path>
                  <path vector-effect="non-scaling-stroke" d="M105.624512,4.97216797 C94.4226888,4.50244141 85.9366862,9.85058594 80.1665039,21.0166016 C79.8051287,21.7159073 79.4687138,22.3615749 79.1572595,22.9536042 L80.1089196,17.7968272 C80.4778395,16.9245818 81.0906215,15.4885626 81.9472656,13.4887695 C86.7151693,7.81103516 89.2679036,4.97216797 89.6054688,4.97216797 C89.9430339,4.97216797 92.2714844,3.71272786 96.5908203,1.19384766 L101.309082,0.447753906 L105.624512,0.447753906 L105.624512,4.97216797 Z"
                    fill="#FFFFFF"></path>
                  <path vector-effect="non-scaling-stroke" d="M96.5,7.5 L96.5,7.5 C109.754834,7.5 120.5,18.245166 120.5,31.5 L120.5,41.5 L72.5,41.5 L72.5,31.5 C72.5,18.245166 83.245166,7.5 96.5,7.5 Z" style="stroke: var(--illustration-stroke-primary, #90d0fe);" stroke-width="3"
                    stroke-linecap="round" stroke-linejoin="round" transform="translate(96.500000, 24.500000) scale(-1, 1) rotate(90.000000) translate(-96.500000, -24.500000) "></path>
                  <rect style="fill: var(--illustration-fill-secondary, #cfe9fe);" x="106.5" y="0.5" width="110" height="48"></rect>
                  <rect style="stroke: var(--illustration-stroke-primary, #90d0fe);" stroke-width="3" stroke-linecap="round" stroke-linejoin="round" x="106.5" y="0.5" width="110" height="48"></rect>
                  <rect style="stroke: var(--illustration-stroke-primary, #90d0fe);" stroke-width="3" stroke-linecap="round" stroke-linejoin="round" x="106.5" y="62.5" width="48" height="54"></rect>
                  <rect style="stroke: var(--illustration-stroke-primary, #90d0fe);" stroke-width="3" stroke-linecap="round" stroke-linejoin="round" x="106.5" y="48.5" width="48" height="14"></rect>
                  <path vector-effect="non-scaling-stroke" d="M219,66 C219,68.765 216.765,71 214,71 C211.235,71 209,68.765 209,66 C209,63.235 211.235,61 214,61 C216.765,61 219,63.235 219,66 Z" style="fill: var(--illustration-fill-primary, #90d0fe);"></path>
                  <path vector-effect="non-scaling-stroke" d="M214,69 L214,74" style="stroke: var(--illustration-stroke-primary, #90d0fe);" stroke-width="4" stroke-linecap="round"></path>
                  <circle vector-effect="non-scaling-stroke" style="fill: var(--illustration-fill-primary, #90d0fe);" cx="164" cy="72" r="3"></circle>
                  <circle vector-effect="non-scaling-stroke" style="fill: var(--illustration-fill-primary, #90d0fe);" cx="164" cy="107" r="3"></circle>
                  <circle vector-effect="non-scaling-stroke" style="fill: var(--illustration-fill-primary, #90d0fe);" cx="255" cy="72" r="3"></circle>
                  <circle vector-effect="non-scaling-stroke" style="fill: var(--illustration-fill-primary, #90d0fe);" cx="255" cy="107" r="3"></circle>
                  <circle vector-effect="non-scaling-stroke" style="fill: var(--illustration-fill-primary, #90d0fe);" cx="145" cy="72" r="3"></circle>
                  <circle vector-effect="non-scaling-stroke" style="fill: var(--illustration-fill-primary, #90d0fe);" cx="145" cy="107" r="3"></circle>
                  <circle vector-effect="non-scaling-stroke" style="fill: var(--illustration-fill-primary, #90d0fe);" cx="116" cy="72" r="3"></circle>
                  <circle vector-effect="non-scaling-stroke" style="fill: var(--illustration-fill-primary, #90d0fe);" cx="116" cy="107" r="3"></circle>
                  <path vector-effect="non-scaling-stroke" d="M289.928751,96.2971422 L298,116.518658 L280,116.518658 L288.071249,96.2971422 C288.275982,95.784207 288.857768,95.5343604 289.370703,95.7390942 C289.625359,95.8407378 289.827108,96.0424867 289.928751,96.2971422 Z"
                    style="fill: var(--illustration-fill-primary, #90d0fe);"></path>
                  <path vector-effect="non-scaling-stroke" d="M300.428751,103.813271 L305.5,116.518658 L293.5,116.518658 L298.571249,103.813271 C298.775982,103.300336 299.357768,103.050489 299.870703,103.255223 C300.125359,103.356867 300.327108,103.558616 300.428751,103.813271 Z"
                    style="fill: var(--illustration-fill-primary, #90d0fe);"></path>
                  <path vector-effect="non-scaling-stroke" d="M93.4287513,96.2971422 L101.5,116.518658 L83.5,116.518658 L91.5712487,96.2971422 C91.7759825,95.784207 92.3577681,95.5343604 92.8707033,95.7390942 C93.1253588,95.8407378 93.3271077,96.0424867 93.4287513,96.2971422 Z"
                    style="fill: var(--illustration-fill-primary, #90d0fe);" transform="translate(92.500000, 106.517446) scale(-1, 1) translate(-92.500000, -106.517446) "></path>
                  <path vector-effect="non-scaling-stroke" d="M76.9287513,103.813271 L82,116.518658 L70,116.518658 L75.0712487,103.813271 C75.2759825,103.300336 75.8577681,103.050489 76.3707033,103.255223 C76.6253588,103.356867 76.8271077,103.558616 76.9287513,103.813271 Z"
                    style="fill: var(--illustration-fill-primary, #90d0fe);" transform="translate(76.000000, 110.275510) scale(-1, 1) translate(-76.000000, -110.275510) "></path>
                  <path vector-effect="non-scaling-stroke" d="M360,116.5 L372,116.5" style="stroke: var(--illustration-stroke-primary, #90d0fe);" stroke-width="3" stroke-linecap="round" stroke-linejoin="round"></path>
                  <path vector-effect="non-scaling-stroke" d="M0,116.5 L350,116.5" style="stroke: var(--illustration-stroke-primary, #90d0fe);" stroke-width="3" stroke-linecap="round" stroke-linejoin="round"></path>
                </g>
              </g>
              <g transform="translate(160.000000, 126.000000)" style="stroke: var(--illustration-stroke-secondary, #cfe9fe);" stroke-linecap="round" stroke-width="3">
                <path vector-effect="non-scaling-stroke" d="M44,17.5 L63,17.5 C62.2789714,12.0723971 64.081543,7.53186978 68.4077148,3.87841797 C73.3754883,-0.195556641 79.2734375,0.717773438 82.440918,2.12353516 C85.6083984,3.52929687 87.9606934,5.46069336 89.5913086,9.10524041 C90.2822266,10.6397351 90.7517904,11.9379883 91,13"></path>
                <path vector-effect="non-scaling-stroke" d="M83,20.5 C84.0558268,16.8461914 86.2227376,14.4572754 89.5007324,13.333252 C94.4177246,11.6472168 99.0800781,13.8925781 100.942383,16.1518555 C102.804687,18.4111328 103.39502,20.2260742 103.746582,22.1201172 C103.980957,23.3828125 104.06543,24.8427734 104,26.5 C108.141764,26.3313802 110.918945,27.1647135 112.331543,29 C114.040039,31.1936035 114.215332,33.817627 113.593018,35.75 C112.970703,37.682373 110.894531,40.5 107,40.5 L28,40.5"></path>
                <path vector-effect="non-scaling-stroke" d="M18,27.5 L83.0004985,27.5"></path>
                <path vector-effect="non-scaling-stroke" d="M0,27.5 L8,27.5"></path>
              </g>
              <g transform="translate(271.000000, 95.000000)" style="stroke: var(--illustration-stroke-secondary, #cfe9fe);" stroke-linecap="round" stroke-width="3">
                <path vector-effect="non-scaling-stroke" d="M44,17.5 L63,17.5 C62.2789714,12.0723971 64.081543,7.53186978 68.4077148,3.87841797 C73.3754883,-0.195556641 79.2734375,0.717773438 82.440918,2.12353516 C85.6083984,3.52929687 87.9606934,5.46069336 89.5913086,9.10524041 C90.2822266,10.6397351 90.7517904,11.9379883 91,13"></path>
                <path vector-effect="non-scaling-stroke" d="M83,20.5 C84.0558268,16.8461914 86.2227376,14.4572754 89.5007324,13.333252 C94.4177246,11.6472168 99.0800781,13.8925781 100.942383,16.1518555 C102.804687,18.4111328 103.39502,20.2260742 103.746582,22.1201172 C103.980957,23.3828125 104.06543,24.8427734 104,26.5 C108.141764,26.3313802 110.918945,27.1647135 112.331543,29 C114.040039,31.1936035 114.215332,33.817627 113.593018,35.75 C112.970703,37.682373 110.894531,40.5 107,40.5 L28,40.5"></path>
                <path vector-effect="non-scaling-stroke" d="M18,27.5 L83.0004985,27.5"></path>
                <path vector-effect="non-scaling-stroke" d="M0,27.5 L8,27.5"></path>
              </g>
              <g transform="translate(402.000000, 164.000000)" style="stroke: var(--illustration-stroke-secondary, #cfe9fe);" stroke-linecap="round" stroke-width="3">
                <g transform="translate(31.713442, 25.088326) rotate(-15.000000) translate(-31.713442, -25.088326) translate(4.713442, 6.588326)">
                  <path vector-effect="non-scaling-stroke" d="M31.0360707,3.43528591 C31.0360707,3.43528591 40.5802283,0.671893051 42.6488424,10.6908663" transform="translate(36.842457, 6.888440) rotate(41.000000) translate(-36.842457, -6.888440) "></path>
                  <path vector-effect="non-scaling-stroke" d="M40.4282002,10.1797377 C40.4282002,10.1797377 49.9723578,7.4163448 52.0409719,17.435318" transform="translate(46.234586, 13.632892) scale(-1, 1) rotate(-41.000000) translate(-46.234586, -13.632892) "></path>
                  <path vector-effect="non-scaling-stroke" d="M0.730284783,29.5865514 C0.730284783,29.5865514 10.2744424,26.8231586 12.3430565,36.8421318"></path>
                  <path vector-effect="non-scaling-stroke" d="M12.7302848,29.5865514 C12.7302848,29.5865514 22.2744424,26.8231586 24.3430565,36.8421318" transform="translate(18.536671, 33.039705) scale(-1, 1) translate(-18.536671, -33.039705) "></path>
                </g>
              </g>
            </g>
          </g>
        </g>
    </symbol>

    <symbol id='no-connection' viewBox="0 0 454 265">
        <g stroke="none" stroke-width="1" fill="none" fill-rule="evenodd">
          <g transform="translate(-77.000000, -60.000000)">
            <g>
              <g transform="translate(190.000000, 206.000000)" style="stroke: var(--illustration-stroke-secondary, #cfe9fe);" stroke-linecap="round" stroke-width="3">
                <path vector-effect="non-scaling-stroke" d="M44,17.5 L63,17.5 C62.2789714,12.0723971 64.081543,7.53186978 68.4077148,3.87841797 C73.3754883,-0.195556641 79.2734375,0.717773438 82.440918,2.12353516 C85.6083984,3.52929687 87.9606934,5.46069336 89.5913086,9.10524041 C90.2822266,10.6397351 90.7517904,11.9379883 91,13"></path>
                <path vector-effect="non-scaling-stroke" d="M83,20.5 C84.0558268,16.8461914 86.2227376,14.4572754 89.5007324,13.333252 C94.4177246,11.6472168 99.0800781,13.8925781 100.942383,16.1518555 C102.804687,18.4111328 103.39502,20.2260742 103.746582,22.1201172 C103.980957,23.3828125 104.06543,24.8427734 104,26.5 C108.141764,26.3313802 110.918945,27.1647135 112.331543,29 C114.040039,31.1936035 114.215332,33.817627 113.593018,35.75 C112.970703,37.682373 110.894531,40.5 107,40.5 L28,40.5"></path>
                <path vector-effect="non-scaling-stroke" d="M18,27.5 L83.0004985,27.5"></path>
                <path vector-effect="non-scaling-stroke" d="M0,27.5 L8,27.5"></path>
              </g>
              <g transform="translate(300.000000, 161.000000)" style="stroke: var(--illustration-stroke-secondary, #cfe9fe);" stroke-linecap="round" stroke-width="3">
                <path vector-effect="non-scaling-stroke" d="M44,17.5 L63,17.5 C62.2789714,12.0723971 64.081543,7.53186978 68.4077148,3.87841797 C73.3754883,-0.195556641 79.2734375,0.717773438 82.440918,2.12353516 C85.6083984,3.52929687 87.9606934,5.46069336 89.5913086,9.10524041 C90.2822266,10.6397351 90.7517904,11.9379883 91,13"></path>
                <path vector-effect="non-scaling-stroke" d="M83,20.5 C84.0558268,16.8461914 86.2227376,14.4572754 89.5007324,13.333252 C94.4177246,11.6472168 99.0800781,13.8925781 100.942383,16.1518555 C102.804687,18.4111328 103.39502,20.2260742 103.746582,22.1201172 C103.980957,23.3828125 104.06543,24.8427734 104,26.5 C108.141764,26.3313802 110.918945,27.1647135 112.331543,29 C114.040039,31.1936035 114.215332,33.817627 113.593018,35.75 C112.970703,37.682373 110.894531,40.5 107,40.5 L28,40.5"></path>
                <path vector-effect="non-scaling-stroke" d="M18,27.5 L83.0004985,27.5"></path>
                <path vector-effect="non-scaling-stroke" d="M0,27.5 L8,27.5"></path>
              </g>
              <g transform="translate(79.000000, 249.000000)">
                <path vector-effect="non-scaling-stroke" d="M0,62.5 L450,62.5" style="stroke: var(--illustration-stroke-secondary, #cfe9fe);" stroke-width="3" stroke-linecap="round"></path>
                <polyline vector-effect="non-scaling-stroke" style="stroke: var(--illustration-stroke-secondary, #cfe9fe);" stroke-width="3" stroke-linecap="round" stroke-linejoin="round" points="32 62 107.5 0 165.5 45.1232877"></polyline>
                <polyline vector-effect="non-scaling-stroke" style="stroke: var(--illustration-stroke-secondary, #cfe9fe);" stroke-width="3" stroke-linecap="round" stroke-linejoin="round" points="148 30.9433962 165.5 16 222 62"></polyline>
                <path vector-effect="non-scaling-stroke" d="M42.8943213,32.968973 L46.3925781,49.4296875 L34.453125,58.6445312 L40.9466068,32.9319979 C41.081836,32.3965247 41.6255477,32.0720629 42.1610209,32.2072921 C42.5306645,32.3006424 42.8150677,32.5960527 42.8943213,32.968973 Z"
                  style="fill: var(--illustration-fill-secondary, #cfe9fe);"></path>
                <path vector-effect="non-scaling-stroke" d="M199.962964,27.4391572 L206,49 L194.770218,39.1063642 L198.037036,27.4391572 C198.185948,26.9073269 198.7378,26.5969106 199.26963,26.7458231 C199.605963,26.8399963 199.868791,27.1028246 199.962964,27.4391572 Z"
                  style="fill: var(--illustration-fill-secondary, #cfe9fe);"></path>
                <path vector-effect="non-scaling-stroke" d="M47.9662349,37.3583594 L50.4271384,46.5867475 L46.8251953,48.7349783 L43,48.7349783 L46.0337651,37.3583594 C46.1760682,36.8247225 46.7240258,36.5074839 47.2576627,36.6497871 C47.6036917,36.7420615 47.8739605,37.0123303 47.9662349,37.3583594 Z"
                  style="fill: var(--illustration-fill-secondary, #cfe9fe);"></path>
              </g>
              <g transform="translate(394.000000, 265.500000) scale(-1, 1) translate(-394.000000, -265.500000) translate(288.000000, 222.000000)">
                <polyline vector-effect="non-scaling-stroke" style="stroke: var(--illustration-stroke-secondary, #cfe9fe);" stroke-width="3" stroke-linecap="round" stroke-linejoin="round" points="0.5 87 87.5 0 153.5 68"></polyline>
                <path vector-effect="non-scaling-stroke" d="M8.16064153,59.5904583 L14.229782,83 L3,71.1063642 L6.22968061,59.5717906 C6.37859311,59.0399602 6.93044422,58.729544 7.46227456,58.8784565 C7.80524768,58.9744889 8.07125785,59.2456927 8.16064153,59.5904583 Z"
                  style="fill: var(--illustration-fill-secondary, #cfe9fe);" transform="translate(8.614891, 70.920583) scale(-1, 1) translate(-8.614891, -70.920583) "></path>
                <polyline vector-effect="non-scaling-stroke" style="stroke: var(--illustration-stroke-secondary, #cfe9fe);" stroke-width="3" stroke-linecap="round" stroke-linejoin="round" points="135.5 46 158.5 25 211.5 78"></polyline>
              </g>
              <g transform="translate(406.500000, 262.500000)">
                <g style="fill: var(--illustration-fill-secondary, #cfe9fe);">
                  <path vector-effect="non-scaling-stroke" d="M18.9209988,1.95433401 L33.259296,51.443436 C33.5666778,52.5043744 32.9557995,53.613617 31.8948612,53.9209988 C31.7139843,53.9734036 31.5266126,54 31.3382972,54 L2.6617028,54 C1.5571333,54 0.661702805,53.1045695 0.661702805,52 C0.661702805,51.8116846 0.688299176,51.6243129 0.74070397,51.443436 L15.0790012,1.95433401 C15.386383,0.893395645 16.4956256,0.282517358 17.556564,0.589899164 C18.2152102,0.780726338 18.7301717,1.29568777 18.9209988,1.95433401 Z"></path>
                </g>
                <g style="stroke: var(--illustration-stroke-primary, #90d0fe);" stroke-linecap="round" stroke-width="3">
                  <polygon vector-effect="non-scaling-stroke" stroke-linejoin="round" points="17 0.323943662 34 54 -1.81721305e-12 54"></polygon>
                  <path vector-effect="non-scaling-stroke" d="M17,3.6953125 C17,42.0456294 17,61.6471919 17,62.5 C17,61.6471919 17,42.0456294 17,3.6953125 Z"></path>
                  <path vector-effect="non-scaling-stroke" d="M17,29.3239437 C22.3333333,35.7851611 25,39.1184944 25,39.3239437 C25,39.1184944 22.3333333,35.7851611 17,29.3239437 Z" stroke-linejoin="round" transform="translate(21.000000, 34.323944) scale(-1, 1) translate(-21.000000, -34.323944) "></path>
                </g>
              </g>
              <g transform="translate(363.000000, 229.500000)">
                <g transform="translate(1.000000, 0.000000)" style="fill: var(--illustration-fill-secondary, #cfe9fe);">
                  <path vector-effect="non-scaling-stroke" d="M25.6478873,0 L50.879042,84.4273253 C51.1953215,85.4856452 50.5937789,86.5999782 49.535459,86.9162577 C49.3496374,86.9717906 49.1567264,87 48.9627843,87 L2.33299037,87 C1.22842087,87 0.332990367,86.1045695 0.332990367,85 C0.332990367,84.8060578 0.361199757,84.6131469 0.416732643,84.4273253 L25.6478873,0 Z"></path>
                </g>
                <g style="stroke: var(--illustration-stroke-primary, #90d0fe);" stroke-linecap="round" stroke-width="3">
                  <polygon vector-effect="non-scaling-stroke" stroke-linejoin="round" points="26.5 0 52.5 87 0.5 87"></polygon>
                  <path vector-effect="non-scaling-stroke" d="M26.5,2.58642578 C26.5,63.0261034 26.5,93.9972948 26.5,95.5 C26.5,93.9972948 26.5,63.0261034 26.5,2.58642578 Z"></path>
                  <path vector-effect="non-scaling-stroke" d="M15.6478873,42 C22.9812207,49.078692 26.6478873,52.7453587 26.6478873,53 C26.6478873,52.7453587 22.9812207,49.078692 15.6478873,42 Z" stroke-linejoin="round"></path>
                  <path vector-effect="non-scaling-stroke" d="M27.6478873,68 C36.9812207,57.078692 41.6478873,51.7453587 41.6478873,52 C41.6478873,51.7453587 36.9812207,57.078692 27.6478873,68 Z" stroke-linejoin="round"></path>
                </g>
              </g>
              <g transform="translate(118.500000, 262.500000)">
                <g transform="translate(27.000000, 0.000000)" style="fill: var(--illustration-fill-secondary, #cfe9fe);">
                  <path vector-effect="non-scaling-stroke" d="M18.9209988,1.95433401 L33.259296,51.443436 C33.5666778,52.5043744 32.9557995,53.613617 31.8948612,53.9209988 C31.7139843,53.9734036 31.5266126,54 31.3382972,54 L2.6617028,54 C1.5571333,54 0.661702805,53.1045695 0.661702805,52 C0.661702805,51.8116846 0.688299176,51.6243129 0.74070397,51.443436 L15.0790012,1.95433401 C15.386383,0.893395645 16.4956256,0.282517358 17.556564,0.589899164 C18.2152102,0.780726338 18.7301717,1.29568777 18.9209988,1.95433401 Z"></path>
                </g>
                <g style="stroke: var(--illustration-stroke-primary, #90d0fe);" stroke-width="3">
                  <polygon vector-effect="non-scaling-stroke" stroke-linecap="round" stroke-linejoin="round" points="44 0.323943662 61 54 27 54"></polygon>
                  <path vector-effect="non-scaling-stroke" d="M44,4.32394366 C44,42.2551731 44,61.6471919 44,62.5 C44,61.6471919 44,42.2551731 44,4.32394366 Z"></path>
                  <path vector-effect="non-scaling-stroke" d="M44,32.3239437 C50.6666667,39.4518278 54,43.1184944 54,43.3239437 C54,43.1184944 50.6666667,39.4518278 44,32.3239437 Z" stroke-linecap="round" stroke-linejoin="round" transform="translate(49.000000, 37.823944) scale(-1, 1) translate(-49.000000, -37.823944) "></path>
                  <path vector-effect="non-scaling-stroke" d="M0.5,61 L356.5,61" stroke-linecap="round"></path>
                  <path vector-effect="non-scaling-stroke" d="M363.5,61 L373.5,61" stroke-linecap="round"></path>
                </g>
              </g>
              <g transform="translate(146.000000, 62.000000)">
                <g style="fill: var(--illustration-fill-secondary, #cfe9fe);">
                  <circle vector-effect="non-scaling-stroke" cx="66" cy="66" r="66"></circle>
                  <ellipse cx="66.5" cy="66" rx="38.5" ry="66"></ellipse>
                  <rect x="49.5" y="153.5" width="32" height="22"></rect>
                </g>
                <g transform="translate(4.000000, 0.000000)" fill="#FFFFFF">
                  <path vector-effect="non-scaling-stroke" d="M0.276855469,47.7788086 C4.72770182,36.0685221 11.8059896,26.5141602 21.5117188,19.1157227 C30.1201172,12.7973633 35.706543,9.09326172 48.0908203,6.87597656 C51.8487061,6.20316343 56.1575774,0.963049705 61.0175781,0.886230469 C66.9931232,0.791778465 73.7249109,6.08477534 80.3537012,7.83514372 C86.1008648,9.35271373 91.8836069,11.7592753 97.3378906,15.394043 C114.199707,26.6308594 117.956543,35.4946289 123.961914,47.7788086 C127.965495,55.9682617 127.643229,53.3107096 122.995117,39.8061523 L115.15625,26.3779297 L99.3500977,11.8393555 L79.3271484,3.14208984 L58.2192383,0.886230469 L41.0913086,4.39794922 L22.6689453,13.8129883 L6.44238281,30.0708008 L0.276855469,43.0327148 L0.276855469,47.7788086 Z"></path>
                  <path vector-effect="non-scaling-stroke" d="M30.494873,34.0495605 C30.494873,34.0495605 37.3376465,17.0495605 47.779541,9.9309082 C53.5096842,6.13435872 59.1995443,4.51472982 64.8491211,5.07202148 C69.2832031,5.49861654 73.9475098,7.55900065 78.842041,11.2531738 C86.1838379,16.7944336 92.1347656,27.7973633 95.4316406,35.8276367 C97.6295573,41.1811523 96.2676595,36.5566406 91.3459473,21.9541016 C85.9305827,14.9046224 83.0406087,11.2403971 82.6760254,10.9614258 C82.3114421,10.6824544 79.0512695,7.82503255 72.8955078,2.38916016 C68.7790927,0.889351294 65.6379734,0.119006242 63.4721497,0.078125 C61.306326,0.0372437583 58.0536466,0.686901961 53.7141113,2.02709961 L45.8171387,7.78222656 L37.4606934,16.3037109 C33.3729655,23.1031901 31.1993001,26.6408691 30.9396973,26.916748 C30.550293,27.3305664 30.494873,34.0495605 30.494873,34.0495605 Z"></path>
                </g>
                <circle vector-effect="non-scaling-stroke" style="stroke: var(--illustration-stroke-primary, #90d0fe);" stroke-width="3" stroke-linecap="round" stroke-linejoin="round" cx="66" cy="66" r="66"></circle>
                <ellipse style="stroke: var(--illustration-stroke-primary, #90d0fe);" stroke-width="3" stroke-linecap="round" stroke-linejoin="round" cx="66.5" cy="66" rx="38.5" ry="66"></ellipse>
                <g transform="translate(24.000000, 117.000000)" style="stroke: var(--illustration-stroke-primary, #90d0fe);" stroke-linecap="round" stroke-linejoin="round" stroke-width="3">
                  <rect x="26.5" y="36.5" width="31" height="22"></rect>
                  <path vector-effect="non-scaling-stroke" d="M84,36 L58,0" transform="translate(71.000000, 18.000000) scale(-1, 1) translate(-71.000000, -18.000000) "></path>
                  <path vector-effect="non-scaling-stroke" d="M55,36 L48,14" transform="translate(51.500000, 25.000000) scale(-1, 1) translate(-51.500000, -25.000000) "></path>
                  <path vector-effect="non-scaling-stroke" d="M36,36 L29,14"></path>
                  <path vector-effect="non-scaling-stroke" d="M26,36 L0,0"></path>
                </g>
              </g>
              <g transform="translate(426.000000, 113.000000)" style="stroke: var(--illustration-stroke-secondary, #cfe9fe);" stroke-linecap="round" stroke-linejoin="round" stroke-width="3">
                <g transform="translate(0.500000, 0.500000)">
                  <circle vector-effect="non-scaling-stroke" cx="33.5" cy="33.5" r="33"></circle>
                  <ellipse cx="33.75" cy="33.5" rx="19.25" ry="33"></ellipse>
                  <rect x="24.5" y="77" width="18" height="11"></rect>
                  <path vector-effect="non-scaling-stroke" d="M54.5,77 L41.5,59" transform="translate(48.000000, 68.000000) scale(-1, 1) translate(-48.000000, -68.000000) "></path>
                  <path vector-effect="non-scaling-stroke" d="M40,77 L36.5,66" transform="translate(38.250000, 71.500000) scale(-1, 1) translate(-38.250000, -71.500000) "></path>
                  <path vector-effect="non-scaling-stroke" d="M30.5,77 L27,66"></path>
                  <path vector-effect="non-scaling-stroke" d="M25.5,77 L12,59"></path>
                </g>
              </g>
              <g transform="translate(72.000000, 194.000000)" style="stroke: var(--illustration-stroke-secondary, #cfe9fe);" stroke-linecap="round" stroke-width="3">
                <g transform="translate(31.713442, 25.088326) rotate(-15.000000) translate(-31.713442, -25.088326) translate(4.713442, 6.588326)">
                  <path vector-effect="non-scaling-stroke" d="M31.0360707,3.43528591 C31.0360707,3.43528591 40.5802283,0.671893051 42.6488424,10.6908663" transform="translate(36.842457, 6.888440) rotate(41.000000) translate(-36.842457, -6.888440) "></path>
                  <path vector-effect="non-scaling-stroke" d="M40.4282002,10.1797377 C40.4282002,10.1797377 49.9723578,7.4163448 52.0409719,17.435318" transform="translate(46.234586, 13.632892) scale(-1, 1) rotate(-41.000000) translate(-46.234586, -13.632892) "></path>
                  <path vector-effect="non-scaling-stroke" d="M0.730284783,29.5865514 C0.730284783,29.5865514 10.2744424,26.8231586 12.3430565,36.8421318"></path>
                  <path vector-effect="non-scaling-stroke" d="M12.7302848,29.5865514 C12.7302848,29.5865514 22.2744424,26.8231586 24.3430565,36.8421318" transform="translate(18.536671, 33.039705) scale(-1, 1) translate(-18.536671, -33.039705) "></path>
                </g>
              </g>
            </g>
          </g>
        </g>
      </symbol>

      <symbol id='no-task' viewBox="0 0 454 182">
        <g stroke="none" stroke-width="1" fill="none" fill-rule="evenodd">
          <g transform="translate(-73.000000, -110.000000)">
            <g>
              <g transform="translate(75.000000, 240.000000)">
                <polyline vector-effect="non-scaling-stroke" style="stroke: var(--illustration-stroke-secondary, #cfe9fe);" stroke-width="3" stroke-linecap="round" stroke-linejoin="round" transform="translate(375.250000, 18.000000) scale(-1, 1) translate(-375.250000, -18.000000) "
                  points="335.5 36 380 0 415 27"></polyline>
                <polyline vector-effect="non-scaling-stroke" style="stroke: var(--illustration-stroke-secondary, #cfe9fe);" stroke-width="3" stroke-linecap="round" stroke-linejoin="round" transform="translate(324.500000, 22.500000) scale(-1, 1) translate(-324.500000, -22.500000) "
                  points="303 18 313.5 9 346 36"></polyline>
                <path vector-effect="non-scaling-stroke" d="M0,36.5 L450,36.5" style="stroke: var(--illustration-stroke-secondary, #cfe9fe);" stroke-width="3" stroke-linecap="round"></path>
                <path vector-effect="non-scaling-stroke" d="M406.04276,9.26543454 L413,32.7461193 L400.495829,23.8448556 L404.113561,9.30802252 C404.246938,8.772085 404.789525,8.44574518 405.325462,8.57912213 C405.669253,8.66468028 405.942114,8.9257539 406.04276,9.26543454 Z"
                  style="fill: var(--illustration-fill-secondary, #cfe9fe);"></path>
                <path vector-effect="non-scaling-stroke" d="M311.962964,11.4391572 L318,33 L306.770218,23.1063642 L310.037036,11.4391572 C310.185948,10.9073269 310.7378,10.5969106 311.26963,10.7458231 C311.605963,10.8399963 311.868791,11.1028246 311.962964,11.4391572 Z"
                  style="fill: var(--illustration-fill-secondary, #cfe9fe);" transform="translate(312.385109, 21.626882) scale(-1, 1) translate(-312.385109, -21.626882) "></path>
              </g>
              <g transform="translate(83.000000, 173.000000)" style="stroke: var(--illustration-stroke-secondary, #cfe9fe);" stroke-linecap="round" stroke-width="3">
                <path vector-effect="non-scaling-stroke" d="M44,17.5 L63,17.5 C62.2789714,12.0723971 64.081543,7.53186978 68.4077148,3.87841797 C73.3754883,-0.195556641 79.2734375,0.717773438 82.440918,2.12353516 C85.6083984,3.52929687 87.9606934,5.46069336 89.5913086,9.10524041 C90.2822266,10.6397351 90.7517904,11.9379883 91,13"></path>
                <path vector-effect="non-scaling-stroke" d="M83,20.5 C84.0558268,16.8461914 86.2227376,14.4572754 89.5007324,13.333252 C94.4177246,11.6472168 99.0800781,13.8925781 100.942383,16.1518555 C102.804687,18.4111328 103.39502,20.2260742 103.746582,22.1201172 C103.980957,23.3828125 104.06543,24.8427734 104,26.5 C108.141764,26.3313802 110.918945,27.1647135 112.331543,29 C114.040039,31.1936035 114.215332,33.817627 113.593018,35.75 C112.970703,37.682373 110.894531,40.5 107,40.5 L28,40.5"></path>
                <path vector-effect="non-scaling-stroke" d="M18,27.5 L83.0004985,27.5"></path>
                <path vector-effect="non-scaling-stroke" d="M0,27.5 L8,27.5"></path>
              </g>
              <g transform="translate(274.000000, 111.000000)" style="stroke: var(--illustration-stroke-secondary, #cfe9fe);" stroke-linecap="round" stroke-width="3">
                <path vector-effect="non-scaling-stroke" d="M44,17.5 L63,17.5 C62.2789714,12.0723971 64.081543,7.53186978 68.4077148,3.87841797 C73.3754883,-0.195556641 79.2734375,0.717773438 82.440918,2.12353516 C85.6083984,3.52929687 87.9606934,5.46069336 89.5913086,9.10524041 C90.2822266,10.6397351 90.7517904,11.9379883 91,13"></path>
                <path vector-effect="non-scaling-stroke" d="M83,20.5 C84.0558268,16.8461914 86.2227376,14.4572754 89.5007324,13.333252 C94.4177246,11.6472168 99.0800781,13.8925781 100.942383,16.1518555 C102.804687,18.4111328 103.39502,20.2260742 103.746582,22.1201172 C103.980957,23.3828125 104.06543,24.8427734 104,26.5 C108.141764,26.3313802 110.918945,27.1647135 112.331543,29 C114.040039,31.1936035 114.215332,33.817627 113.593018,35.75 C112.970703,37.682373 110.894531,40.5 107,40.5 L28,40.5"></path>
                <path vector-effect="non-scaling-stroke" d="M18,27.5 L83.0004985,27.5"></path>
                <path vector-effect="non-scaling-stroke" d="M0,27.5 L8,27.5"></path>
              </g>
              <g transform="translate(115.000000, 191.000000)">
                <g transform="translate(148.000000, 32.000000) scale(-1, 1) translate(-148.000000, -32.000000) translate(116.000000, 0.000000)" style="fill: var(--illustration-fill-secondary, #cfe9fe);">
                  <path vector-effect="non-scaling-stroke" d="M25,53 C25,55.76 22.76125,58 20,58 C17.24,58 15,55.76 15,53 C15,50.24 17.24,48 20,48 C22.76125,48 25,50.24 25,53 Z"></path>
                  <path vector-effect="non-scaling-stroke" d="M8,58 C6.34130214,58 5,59.344354 5,61 C5,62.655646 6.34130214,64 8,64 C9.65717192,64 11,62.655646 11,61 C11,59.344354 9.65717192,58 8,58"></path>
                  <path vector-effect="non-scaling-stroke" d="M43.2932416,0 C35.2856577,0 28.3128049,4.40586521 24.6382957,10.9184604 C22.0889739,9.11222859 18.9814709,8.03886643 15.6213524,8.03886643 C6.99160591,8.03886643 0,15.0367986 0,23.6690948 C0,32.302472 6.99160591,39.3004042 15.6213524,39.3004042 C15.8077805,39.3004042 15.9920023,39.2777047 16.1806367,39.2712191 C19.0013272,43.3344299 23.6918145,46 29.011083,46 C32.7848734,46 36.2475826,44.6596485 38.9469293,42.4296926 C40.3512074,42.7193815 41.8051261,42.8739543 43.2932416,42.8739543 C55.1275661,42.8739543 64,33.4569038 64,21.6185732 C64,9.77916158 55.1275661,0 43.2932416,0 Z"></path>
                </g>
                <g transform="translate(0.000000, 18.000000)">
                  <path vector-effect="non-scaling-stroke" d="M90.5057553,53.0538038 C90.5057553,53.0538038 116.215483,58.0701972 145.433002,58.0701972 C174.650521,58.0701972 204.505755,53.0538038 204.505755,53.0538038 C204.505755,53.0538038 192.222862,60.6378663 185.905056,63.0258453 C179.58725,65.4138243 166.637272,67.3671811 166.637272,67.3671811 C166.637272,67.3671811 153.865271,70.7987363 147.505755,70.9374424 C141.14624,71.0761485 132.54218,68.1108222 132.54218,68.1108222 L106.786672,63.0258453 L90.5057553,53.0538038 Z"
                    style="fill: var(--illustration-fill-primary, #90d0fe);"></path>
                  <path vector-effect="non-scaling-stroke" d="M84.8198266,43.3368404 C84.8198266,43.3368404 99.4457512,70.425365 147.915957,70.425365 C196.386164,70.425365 214.819827,43.3368404 214.819827,43.3368404" style="stroke: var(--illustration-stroke-primary, #90d0fe);"
                    stroke-width="4" stroke-linecap="round" stroke-linejoin="round"></path>
                  <path vector-effect="non-scaling-stroke" d="M73,49.5 L88,49.5" style="stroke: var(--illustration-stroke-primary, #90d0fe);" stroke-width="3" stroke-linecap="round"></path>
                  <path vector-effect="non-scaling-stroke" d="M211,49.5 L226,49.5" style="stroke: var(--illustration-stroke-primary, #90d0fe);" stroke-width="3" stroke-linecap="round"></path>
                  <path vector-effect="non-scaling-stroke" d="M142.74548,0 L153.650377,2.22044605e-16 C154.478804,8.05656105e-16 155.150377,0.671572875 155.150377,1.5 L155.150377,2.98261094 C155.150377,3.11136765 155.100706,3.2351613 155.01171,3.32820944 L146.234757,12.5047677 L155.209827,12.5047677 C156.038254,12.5047677 156.709827,13.1763405 156.709827,14.0047677 L156.709827,14.4270108 C156.709827,15.2554379 156.038254,15.9270108 155.209827,15.9270108 L141.888626,15.9270108 C141.060199,15.9270108 140.388626,15.2554379 140.388626,14.4270108 L140.388626,12.8248256 C140.388626,12.696109 140.438265,12.5723507 140.527212,12.4793109 L149.20663,3.40051458 L142.74548,3.40051458 C141.917053,3.40051458 141.24548,2.7289417 141.24548,1.90051458 L141.24548,1.5 C141.24548,0.671572875 141.917053,1.52179594e-16 142.74548,0 Z"
                    style="fill: var(--illustration-fill-primary, #90d0fe);"></path>
                  <path vector-effect="non-scaling-stroke" d="M20,81.5 L390,81.5" style="stroke: var(--illustration-stroke-primary, #90d0fe);" stroke-width="3" stroke-linecap="round"></path>
                  <path vector-effect="non-scaling-stroke" d="M0,81.5 L12,81.5" style="stroke: var(--illustration-stroke-primary, #90d0fe);" stroke-width="3" stroke-linecap="round"></path>
                </g>
              </g>
              <g transform="translate(175.500000, 153.000000)">
                <g transform="translate(0.000000, 7.000000)" style="fill: var(--illustration-fill-secondary, #cfe9fe);">
                  <path vector-effect="non-scaling-stroke" d="M19.3444016,2.17529966 L32.8957957,84.445825 C33.0753185,85.5357082 32.3373256,86.5647651 31.2474424,86.7442879 C31.1399954,86.7619863 31.0312825,86.7708798 30.9223876,86.7708798 L2.12566435,86.7708798 C1.02109485,86.7708798 0.125664347,85.8754493 0.125664347,84.7708798 C0.125664347,84.6486417 0.136870913,84.526661 0.159143349,84.4064691 L15.4044726,2.13594377 C15.6057311,1.04986421 16.6493247,0.332574998 17.7354043,0.533833473 C18.5639901,0.687376483 19.2074411,1.34381197 19.3444016,2.17529966 Z"></path>
                </g>
                <g style="stroke: var(--illustration-stroke-primary, #90d0fe);" stroke-linecap="round" stroke-width="3">
                  <polygon vector-effect="non-scaling-stroke" stroke-linejoin="round" points="17 0.709590879 34 94.5 -1.82254212e-12 94.5"></polygon>
                  <path vector-effect="non-scaling-stroke" d="M17,8.09449405 C17,92.0999502 17,135.036706 17,136.904762 C17,135.036706 17,92.0999502 17,8.09449405 Z"></path>
                  <path vector-effect="non-scaling-stroke" d="M17,64.2334004 C24.3333333,71.7198767 28,75.6881307 28,76.1381623 C28,75.6881307 24.3333333,71.7198767 17,64.2334004 Z" stroke-linejoin="round" transform="translate(22.500000, 70.185781) scale(-1, 1) translate(-22.500000, -70.185781) "></path>
                  <path vector-effect="non-scaling-stroke" d="M8,50.2334004 C14,57.05321 17,60.6881307 17,61.1381623 C17,60.6881307 14,57.05321 8,50.2334004 Z" stroke-linejoin="round"></path>
                </g>
              </g>
              <g transform="translate(307.500000, 135.000000)">
                <g transform="translate(0.000000, 2.000000)" style="fill: var(--illustration-fill-secondary, #cfe9fe);">
                  <path vector-effect="non-scaling-stroke" d="M29.524032,0.669921875 L55.6419593,108.305728 C55.9024257,109.379148 55.2433964,110.460477 54.1699762,110.720943 C54.0155692,110.75841 53.8572476,110.777344 53.69836,110.777344 L2.40272523,110.777344 C1.29815573,110.777344 0.402725233,109.881913 0.402725233,108.777344 C0.402725233,108.601258 0.42597945,108.425943 0.471884777,108.255946 L29.524032,0.669921875 Z"></path>
                </g>
                <g style="stroke: var(--illustration-stroke-primary, #90d0fe);" stroke-linecap="round" stroke-width="3">
                  <polygon vector-effect="non-scaling-stroke" stroke-linejoin="round" points="29 0 56.572466 112.5 0 112.5"></polygon>
                  <path vector-effect="non-scaling-stroke" d="M29,6.09449405 C29,103.433283 29,153.036706 29,154.904762 C29,153.036706 29,103.433283 29,6.09449405 Z"></path>
                  <path vector-effect="non-scaling-stroke" d="M29,74.2334004 C41,87.05321 47,93.6881307 47,94.1381623 C47,93.6881307 41,87.05321 29,74.2334004 Z" stroke-linejoin="round" transform="translate(38.000000, 84.185781) scale(-1, 1) translate(-38.000000, -84.185781) "></path>
                  <path vector-effect="non-scaling-stroke" d="M14,61.2334004 C24,72.7198767 29,78.6881307 29,79.1381623 C29,78.6881307 24,72.7198767 14,61.2334004 Z" stroke-linejoin="round"></path>
                  <path vector-effect="non-scaling-stroke" d="M29,48.2334004 C36.3333333,57.05321 40,61.6881307 40,62.1381623 C40,61.6881307 36.3333333,57.05321 29,48.2334004 Z" stroke-linejoin="round" transform="translate(34.500000, 55.185781) scale(-1, 1) translate(-34.500000, -55.185781) "></path>
                </g>
              </g>
              <g transform="translate(347.500000, 166.000000)">
                <g transform="translate(0.000000, 4.000000)" style="fill: var(--illustration-fill-secondary, #cfe9fe);">
                  <path vector-effect="non-scaling-stroke" d="M19.3444016,2.17529966 L32.8957957,84.445825 C33.0753185,85.5357082 32.3373256,86.5647651 31.2474424,86.7442879 C31.1399954,86.7619863 31.0312825,86.7708798 30.9223876,86.7708798 L2.12566435,86.7708798 C1.02109485,86.7708798 0.125664347,85.8754493 0.125664347,84.7708798 C0.125664347,84.6486417 0.136870913,84.526661 0.159143349,84.4064691 L15.4044726,2.13594377 C15.6057311,1.04986421 16.6493247,0.332574998 17.7354043,0.533833473 C18.5639901,0.687376483 19.2074411,1.34381197 19.3444016,2.17529966 Z"></path>
                </g>
                <g style="stroke: var(--illustration-stroke-primary, #90d0fe);" stroke-linecap="round" stroke-width="3">
                  <polygon vector-effect="non-scaling-stroke" stroke-linejoin="round" points="17 0.709590879 34 91.5 -1.82254212e-12 91.5"></polygon>
                  <path vector-effect="non-scaling-stroke" d="M17,5.09449405 C17,83.0999502 17,123.036706 17,124.904762 C17,123.036706 17,83.0999502 17,5.09449405 Z"></path>
                  <path vector-effect="non-scaling-stroke" d="M17,61.2334004 C24.3333333,68.7198767 28,72.6881307 28,73.1381623 C28,72.6881307 24.3333333,68.7198767 17,61.2334004 Z" stroke-linejoin="round" transform="translate(22.500000, 67.185781) scale(-1, 1) translate(-22.500000, -67.185781) "></path>
                </g>
              </g>
              <g transform="translate(392.000000, 184.000000)" style="stroke: var(--illustration-stroke-secondary, #cfe9fe);" stroke-linecap="round" stroke-width="3">
                <g transform="translate(31.713442, 25.088326) rotate(-15.000000) translate(-31.713442, -25.088326) translate(4.713442, 6.588326)">
                  <path vector-effect="non-scaling-stroke" d="M31.0360707,3.43528591 C31.0360707,3.43528591 40.5802283,0.671893051 42.6488424,10.6908663" transform="translate(36.842457, 6.888440) rotate(41.000000) translate(-36.842457, -6.888440) "></path>
                  <path vector-effect="non-scaling-stroke" d="M40.4282002,10.1797377 C40.4282002,10.1797377 49.9723578,7.4163448 52.0409719,17.435318" transform="translate(46.234586, 13.632892) scale(-1, 1) rotate(-41.000000) translate(-46.234586, -13.632892) "></path>
                  <path vector-effect="non-scaling-stroke" d="M0.730284783,29.5865514 C0.730284783,29.5865514 10.2744424,26.8231586 12.3430565,36.8421318"></path>
                  <path vector-effect="non-scaling-stroke" d="M12.7302848,29.5865514 C12.7302848,29.5865514 22.2744424,26.8231586 24.3430565,36.8421318" transform="translate(18.536671, 33.039705) scale(-1, 1) translate(-18.536671, -33.039705) "></path>
                </g>
              </g>
            </g>
          </g>
        </g>
      </symbol>
</svg>
