<svg id="nintexAssistant" width="18" height="18" viewBox="-1 -1 20 20" fill="none" xmlns="http://www.w3.org/2000/svg">
<g clip-path="url(#clip0_1428_106)">
<mask id="path-1-inside-1_1428_106" fill="white">
<path fill-rule="evenodd" clip-rule="evenodd" d="M9 0C4.02944 0 0 4.02944 0 9C0 10.4734 0.354039 11.864 0.981685 13.0916L0 18L4.90842 17.0183C6.13597 17.646 7.52664 18 9 18C13.9706 18 18 13.9706 18 9C18 4.02944 13.9706 0 9 0Z"/>
</mask>
<path fill-rule="evenodd" clip-rule="evenodd" d="M9 0C4.02944 0 0 4.02944 0 9C0 10.4734 0.354039 11.864 0.981685 13.0916L0 18L4.90842 17.0183C6.13597 17.646 7.52664 18 9 18C13.9706 18 18 13.9706 18 9C18 4.02944 13.9706 0 9 0Z" fill="#F56900"/>
<path d="M0.981685 13.0916L1.96227 13.2877L2.03054 12.9463L1.87205 12.6363L0.981685 13.0916ZM0 18L-0.980581 17.8039L-1.27475 19.2748L0.196116 18.9806L0 18ZM4.90842 17.0183L5.36367 16.1279L5.05369 15.9695L4.71231 16.0377L4.90842 17.0183ZM1 9C1 4.58172 4.58172 1 9 1V-1C3.47715 -1 -1 3.47715 -1 9H1ZM1.87205 12.6363C1.31479 11.5464 1 10.3114 1 9H-1C-1 10.6353 -0.606713 12.1816 0.0913182 13.5468L1.87205 12.6363ZM0.00110389 12.8955L-0.980581 17.8039L0.980581 18.1961L1.96227 13.2877L0.00110389 12.8955ZM0.196116 18.9806L5.10454 17.9989L4.71231 16.0377L-0.196116 17.0194L0.196116 18.9806ZM9 17C7.68856 17 6.45355 16.6852 5.36367 16.1279L4.45318 17.9087C5.81839 18.6067 7.36472 19 9 19V17ZM17 9C17 13.4183 13.4183 17 9 17V19C14.5228 19 19 14.5228 19 9H17ZM9 1C13.4183 1 17 4.58172 17 9H19C19 3.47715 14.5228 -1 9 -1V1Z" fill="#F56900" mask="url(#path-1-inside-1_1428_106)"/>
<path d="M7.63707 3.07521C7.65573 2.97493 7.86017 2.97493 7.87883 3.07521C8.03197 3.87511 8.35069 5.08546 8.95392 5.72678C9.55715 6.36888 10.6936 6.70781 11.4454 6.87105C11.5394 6.89127 11.5394 7.10815 11.4454 7.12836C10.6936 7.29161 9.55715 7.63054 8.95392 8.27263C8.35069 8.91473 8.03197 10.1243 7.87883 10.9242C7.86017 11.0253 7.65573 11.0253 7.63707 10.9242C7.48393 10.1243 7.16521 8.91473 6.56198 8.27263C5.95875 7.63054 4.82225 7.29161 4.07055 7.12836C3.97648 7.10815 3.97648 6.89127 4.07055 6.87105C4.82225 6.70781 5.95875 6.36888 6.56198 5.72678C7.16521 5.08546 7.48393 3.87511 7.63707 3.07521Z" fill="white"/>
<path d="M11.7418 9.53939C11.7539 9.47645 11.8814 9.47645 11.8935 9.53939C11.9887 10.0397 12.1881 10.7958 12.5649 11.1968C12.9417 11.5979 13.6526 11.8101 14.1223 11.9118C14.1812 11.9247 14.1812 12.0603 14.1223 12.0732C13.6526 12.1749 12.9417 12.3871 12.5649 12.7881C12.1881 13.1892 11.9887 13.9453 11.8935 14.4456C11.8814 14.5077 11.7539 14.5077 11.7418 14.4456C11.6466 13.9453 11.4473 13.1892 11.0696 12.7881C10.6928 12.3871 9.98269 12.1749 9.51305 12.0732C9.45333 12.0603 9.45333 11.9247 9.51305 11.9118C9.98269 11.8101 10.6928 11.5979 11.0696 11.1968C11.4473 10.7958 11.6466 10.0397 11.7418 9.53939Z" fill="white"/>
</g>
<defs>
<clipPath id="clip0_1428_106">
<rect width="18" height="18" fill="white"/>
</clipPath>
</defs>
</svg>
