<svg xmlns="http://www.w3.org/2000/svg" viewBox="0 0 75.36 75.36"><defs><style>.cls-1{fill:#3a5a99;}</style></defs><title>Asset 1</title><g id="Layer_2" data-name="Layer 2"><g id="Layer_1-2" data-name="Layer 1"><path class="cls-1" d="M32.07,0a1.63,1.63,0,0,0-1.46,1.62V9.1a29.43,29.43,0,0,0-8.15,3.38L17.17,7.19a1.61,1.61,0,0,0-2.29,0l-7.7,7.7a1.62,1.62,0,0,0,0,2.29l5.29,5.29A29.4,29.4,0,0,0,9.1,30.62H1.62A1.61,1.61,0,0,0,0,32.24V43.13a1.61,1.61,0,0,0,1.62,1.62H9.1a29.4,29.4,0,0,0,3.37,8.15L7.18,58.18a1.62,1.62,0,0,0,0,2.29l7.7,7.7a1.62,1.62,0,0,0,2.29,0l5.28-5.28a29.29,29.29,0,0,0,8.16,3.37v7.48a1.62,1.62,0,0,0,1.62,1.62h10.9a1.61,1.61,0,0,0,1.61-1.62V66.26a29,29,0,0,0,8.16-3.37l5.28,5.28a1.62,1.62,0,0,0,2.29,0l7.7-7.7a1.61,1.61,0,0,0,0-2.29L62.88,52.9a29.13,29.13,0,0,0,3.38-8.15h7.48a1.61,1.61,0,0,0,1.62-1.62V32.24a1.61,1.61,0,0,0-1.62-1.62H66.26a29.13,29.13,0,0,0-3.38-8.15l5.29-5.29a1.61,1.61,0,0,0,0-2.29l-7.7-7.7a1.61,1.61,0,0,0-2.29,0l-5.29,5.29A29.18,29.18,0,0,0,44.74,9.1V1.62A1.62,1.62,0,0,0,43.13,0H32.07Zm5.61,15.61a22.23,22.23,0,0,1,7.06,1.15l.7.25q.66.25,1.29.54l.08,0,.44.21.23.11a22.16,22.16,0,0,1,10,10l.11.22c.07.14.13.29.2.44l.24.54c.11.27.23.55.33.83l.06.17.07.18.12.35a22.09,22.09,0,0,1,0,14.13c-.06.17-.12.35-.19.52s-.22.58-.34.87a1.21,1.21,0,0,1,0,.14l-.24.53-.2.44-.09.17s0,0,0,0a22.16,22.16,0,0,1-10,10l-.46.23-.21.09-.54.24c-.27.12-.55.23-.83.33l-.17.07-.18.06-.35.12a22.06,22.06,0,0,1-14.12,0c-.2-.06-.39-.14-.58-.21l-.83-.32-.34-.15-.53-.23-.46-.23a22.21,22.21,0,0,1-10-10c-.08-.18-.17-.35-.25-.53s-.09-.2-.13-.3a5,5,0,0,1-.21-.48c-.12-.28-.22-.56-.33-.83l-.09-.23-.12-.35a22.09,22.09,0,0,1,0-14.13l.12-.35L17,30c.11-.28.21-.56.33-.83s.1-.26.16-.39.13-.31.2-.46.13-.27.2-.4l0-.07a22.16,22.16,0,0,1,10-10l.19-.09.23-.11.33-.15q.63-.29,1.29-.54l.7-.25a22.23,22.23,0,0,1,7.06-1.15Z"/></g></g></svg>