<svg xmlns="http://www.w3.org/2000/svg" viewBox="0 0 40.45 74.2"><defs><style>.cls-1{fill:#3a5a99;}</style></defs><title>Asset 8</title><g id="Layer_2" data-name="Layer 2"><g id="Layer_1-2" data-name="Layer 1"><path class="cls-1" d="M20.24,46.47A7.52,7.52,0,1,0,27.73,54,7.52,7.52,0,0,0,20.24,46.47Z"/><path class="cls-1" d="M20.24,33.77A20.22,20.22,0,1,0,40.45,54,20.22,20.22,0,0,0,20.24,33.77Zm0,32.73A12.51,12.51,0,1,1,32.75,54,12.53,12.53,0,0,1,20.24,66.5Z"/><path class="cls-1" d="M17,19.91V41.67h7.41V29.37l5,2.44a24.47,24.47,0,0,1,9.38-3.62L35.1,26.37,24.42,21.12v-.23l2-2.05L40.11,5.24,34.87,0,24.42,10.45V0H17V9.42L7.59,0,2.34,5.24,16,18.84Z"/></g></g></svg>